<svg width="118" height="89" viewBox="0 0 118 89" fill="none" xmlns="http://www.w3.org/2000/svg">
<mask id="path-1-outside-1_648_3301" maskUnits="userSpaceOnUse" x="0" y="0.473633" width="118" height="88" fill="black">
<rect fill="white" y="0.473633" width="118" height="88"/>
<path fill-rule="evenodd" clip-rule="evenodd" d="M35 4.47363C26.1634 4.47363 19 11.6371 19 20.4736V24.4736H6.6C5.16406 24.4736 4 25.6377 4 27.0736C4 32.8174 8.65624 37.4736 14.4 37.4736H19V76.4736C19 80.8919 22.5817 84.4736 27 84.4736H91C95.4183 84.4736 99 80.8919 99 76.4736V37.4736H103.6C109.344 37.4736 114 32.8174 114 27.0736C114 25.6377 112.836 24.4736 111.4 24.4736H99V20.4736C99 11.6371 91.8366 4.47363 83 4.47363H35Z"/>
</mask>
<path fill-rule="evenodd" clip-rule="evenodd" d="M35 4.47363C26.1634 4.47363 19 11.6371 19 20.4736V24.4736H6.6C5.16406 24.4736 4 25.6377 4 27.0736C4 32.8174 8.65624 37.4736 14.4 37.4736H19V76.4736C19 80.8919 22.5817 84.4736 27 84.4736H91C95.4183 84.4736 99 80.8919 99 76.4736V37.4736H103.6C109.344 37.4736 114 32.8174 114 27.0736C114 25.6377 112.836 24.4736 111.4 24.4736H99V20.4736C99 11.6371 91.8366 4.47363 83 4.47363H35Z" fill="white"/>
<path d="M19 24.4736V28.4736H23V24.4736H19ZM19 37.4736H23V33.4736H19V37.4736ZM99 37.4736V33.4736H95V37.4736H99ZM99 24.4736H95V28.4736H99V24.4736ZM23 20.4736C23 13.8462 28.3726 8.47363 35 8.47363V0.473633C23.9543 0.473633 15 9.42794 15 20.4736H23ZM23 24.4736V20.4736H15V24.4736H23ZM6.6 28.4736H19V20.4736H6.6V28.4736ZM8 27.0736C8 27.8468 7.3732 28.4736 6.6 28.4736V20.4736C2.95492 20.4736 0 23.4286 0 27.0736H8ZM14.4 33.4736C10.8654 33.4736 8 30.6083 8 27.0736H0C0 35.0265 6.4471 41.4736 14.4 41.4736V33.4736ZM19 33.4736H14.4V41.4736H19V33.4736ZM23 76.4736V37.4736H15V76.4736H23ZM27 80.4736C24.7909 80.4736 23 78.6828 23 76.4736H15C15 83.1011 20.3726 88.4736 27 88.4736V80.4736ZM91 80.4736H27V88.4736H91V80.4736ZM95 76.4736C95 78.6828 93.2091 80.4736 91 80.4736V88.4736C97.6274 88.4736 103 83.101 103 76.4736H95ZM95 37.4736V76.4736H103V37.4736H95ZM99 41.4736H103.6V33.4736H99V41.4736ZM103.6 41.4736C111.553 41.4736 118 35.0265 118 27.0736H110C110 30.6083 107.135 33.4736 103.6 33.4736V41.4736ZM118 27.0736C118 23.4286 115.045 20.4736 111.4 20.4736V28.4736C110.627 28.4736 110 27.8468 110 27.0736H118ZM111.4 20.4736H99V28.4736H111.4V20.4736ZM95 20.4736V24.4736H103V20.4736H95ZM83 8.47363C89.6274 8.47363 95 13.8462 95 20.4736H103C103 9.42794 94.0457 0.473633 83 0.473633V8.47363ZM35 8.47363H83V0.473633H35V8.47363Z" fill="#0F0F0F" mask="url(#path-1-outside-1_648_3301)"/>
<path d="M19 20.4736C19 11.6371 26.1634 4.47363 35 4.47363H83C91.8366 4.47363 99 11.6371 99 20.4736V76.4736C99 80.8919 95.4183 84.4736 91 84.4736H27C22.5817 84.4736 19 80.8919 19 76.4736V20.4736Z" fill="#FF8A00"/>
<path d="M39 24.4736H78V25.9736C78 36.7432 69.2696 45.4736 58.5 45.4736C47.7304 45.4736 39 36.7432 39 25.9736V24.4736Z" fill="white"/>
<path d="M46 24.4736H71V24.9736C71 31.8772 65.4036 37.4736 58.5 37.4736C51.5964 37.4736 46 31.8772 46 24.9736V24.4736Z" fill="#0F0F0F"/>
<path d="M37.835 57.7131C35.3551 58.0366 33.5 60.1494 33.5 62.6503C33.5 65.6558 36.1427 67.9762 39.123 67.5875L51.2891 66.0006C56.408 65.3329 61.592 65.3329 66.7109 66.0006L78.877 67.5875C81.8573 67.9762 84.5 65.6558 84.5 62.6503C84.5 60.1494 82.6449 58.0366 80.165 57.7131L68.7648 56.2261C62.2824 55.3806 55.7176 55.3806 49.2352 56.2261L37.835 57.7131Z" fill="#0F0F0F" stroke="#0C6DFF" stroke-width="5"/>
<path d="M4 27.0736C4 25.6377 5.16406 24.4736 6.6 24.4736H19V37.4736H14.4C8.65624 37.4736 4 32.8174 4 27.0736Z" fill="white"/>
<path d="M114 27.0736C114 25.6377 112.836 24.4736 111.4 24.4736H99V37.4736H103.6C109.344 37.4736 114 32.8174 114 27.0736Z" fill="white"/>
</svg>
