<svg width="66" height="66" viewBox="0 0 66 66" fill="none" xmlns="http://www.w3.org/2000/svg">
<rect x="2" y="2" width="62" height="62" rx="14" fill="#0C6DFF" stroke="#0F0F0F" stroke-width="4"/>
<path d="M45.3495 44.7882C45.3645 44.7737 45.3771 44.7617 45.3879 44.7518C45.5993 44.743 45.8067 44.6895 45.9964 44.5947C46.0946 44.5456 46.1617 44.5246 46.3138 44.4771C46.4008 44.4499 46.5155 44.4141 46.6796 44.3594C47.0612 44.2322 47.5182 44.0513 48.0504 43.7076C48.3704 43.5414 48.6866 43.3387 48.9413 43.0734C49.2526 42.7492 49.5 42.2968 49.5 41.7399C49.5 41.3577 49.3732 41.0454 49.3139 40.9162C49.2113 40.5085 48.94 40.1561 48.5579 39.955C46.121 38.6724 44.764 37.1652 44.0194 36.0037C43.6442 35.4183 43.42 34.9136 43.2929 34.5597C43.2863 34.5413 43.28 34.5233 43.2739 34.5058C43.3642 34.4611 43.4551 34.4138 43.5453 34.3646C43.9925 34.1207 44.5538 33.759 44.9786 33.3342C45.0522 33.2606 45.1053 33.2077 45.155 33.1611C45.1564 33.1597 45.1579 33.1584 45.1593 33.1571C45.3132 33.1148 45.4603 33.0481 45.5945 32.9586C46.1145 32.6119 46.6404 32.1533 46.9487 31.5367C47.3006 30.8329 47.3006 30.0543 46.9487 29.3505C46.8766 29.2063 46.7817 29.0747 46.6677 28.9607C46.6593 28.9522 46.6505 28.9435 46.6415 28.9344C46.3321 28.6239 45.6688 27.9583 44.481 27.9583H43.9179C43.685 27.9583 43.4554 28.0125 43.2471 28.1167C43.0666 28.2069 42.9408 28.2498 42.7397 28.3168L42.7302 28.32C42.7125 28.3259 42.6944 28.3319 42.6758 28.3381C42.6866 28.1646 42.6972 27.9757 42.7067 27.7669C42.7434 26.9593 42.7482 26.0052 42.5873 25.0194C42.2523 22.3914 41.2182 21.0127 40.3347 19.8346L40.332 19.831C40.2041 19.6605 40.0414 19.5193 39.855 19.4168C39.8432 19.4084 39.8151 19.3883 39.7664 19.3509C39.6843 19.288 39.644 19.2561 39.5977 19.2194C39.5459 19.1784 39.4864 19.1313 39.3523 19.028C38.9987 18.7556 38.5142 18.4011 37.9008 18.0535C36.6625 17.3518 34.932 16.6973 32.6569 16.6973C28.2772 16.6973 25.9512 18.8473 25.1915 19.6003C23.6385 20.8179 23.0212 22.7062 22.7292 24.9978C22.5621 25.8757 22.5717 26.8481 22.6071 27.6261C22.6159 27.8208 22.6269 28.0114 22.6383 28.192C22.2531 28.0467 21.8292 27.9583 21.3958 27.9583H20.8328C20.8178 27.9583 20.8004 27.9581 20.7809 27.958C20.5613 27.956 20.0678 27.9517 19.6071 28.136C18.9637 28.3933 18.5969 28.8869 18.3651 29.3505C18.0131 30.0543 18.0131 30.8329 18.3651 31.5367C18.6527 32.112 19.1297 32.5497 19.6147 32.8873C19.8882 33.1274 20.1511 33.2582 20.2828 33.3237C20.2898 33.3272 20.2965 33.3305 20.3027 33.3337C20.3351 33.3499 20.3569 33.3612 20.3705 33.3684C20.5283 33.5161 20.7162 33.6281 20.9215 33.6966C21.2133 33.7938 21.5348 33.9514 21.8206 34.1228C21.9304 34.1887 22.0278 34.2524 22.1091 34.3094C22.0865 34.3934 22.0554 34.498 22.0135 34.6202C21.8842 34.9977 21.6587 35.526 21.2851 36.1237C20.545 37.308 19.2072 38.7924 16.8124 39.9268C16.657 40.0004 16.5154 40.1001 16.3938 40.2217C16.3943 40.2212 16.3946 40.221 16.3946 40.221C16.3945 40.2209 16.385 40.23 16.3491 40.2615C16.3456 40.2646 16.3416 40.2681 16.3371 40.272C16.3031 40.3018 16.2439 40.3537 16.187 40.4074C16.0785 40.5098 15.8023 40.7756 15.6395 41.1828C15.4341 41.6961 15.4694 42.2668 15.7498 42.7675C15.9804 43.1792 16.3302 43.4617 16.6224 43.6565C17.188 44.0336 17.671 44.226 18.0711 44.3594C18.2352 44.4141 18.3499 44.4499 18.4368 44.4771C18.5227 44.5039 18.5815 44.5223 18.634 44.542C18.7903 44.6541 18.9404 44.7316 19.0596 44.7858C19.2302 44.8633 19.4021 44.9204 19.4971 44.952C19.503 44.954 19.5086 44.9558 19.5139 44.9576C19.5629 44.9739 19.5955 44.9849 19.6236 44.9948C19.6257 44.9965 19.6278 44.9982 19.6299 44.9998C19.6617 45.2608 19.7542 45.6287 20.0199 45.983C20.3414 46.4116 20.7928 46.6654 21.229 46.8361C21.637 47.1068 22.0688 47.1971 22.345 47.2365C22.6994 47.2871 23.0744 47.2869 23.3286 47.2868C23.3415 47.2868 23.3542 47.2868 23.3665 47.2868C23.9836 47.2868 24.9016 47.5056 26.0995 47.805C26.1821 47.8257 26.2663 47.8393 26.3511 47.8456C26.3832 47.8614 26.4346 47.8896 26.5129 47.9385C26.5895 47.9864 26.6532 48.029 26.733 48.0822C26.7825 48.1153 26.8383 48.1525 26.9072 48.1977C27.0591 48.2975 27.2595 48.425 27.4816 48.5361C27.6265 48.6085 27.7831 48.6939 27.9535 48.7869C28.931 49.3204 30.3632 50.102 32.6569 50.102C33.91 50.102 34.9287 49.9451 35.8269 49.6307C36.6758 49.3336 37.347 48.9199 37.9497 48.4773L39.5213 47.6915C40.2952 47.3045 41.089 47.2868 41.9472 47.2868C41.9596 47.2868 41.9722 47.2868 41.9852 47.2868C42.2394 47.2869 42.6144 47.2871 42.9687 47.2365C43.3217 47.1861 43.9287 47.0528 44.4155 46.5659C44.9705 46.0109 45.0988 45.3977 45.128 44.9941C45.1741 44.9578 45.2182 44.9187 45.2601 44.8768C45.2967 44.8402 45.3236 44.8133 45.3495 44.7882ZM49.2589 40.794C49.2601 40.7952 49.2681 40.8125 49.2791 40.8425C49.2632 40.8078 49.2577 40.7928 49.2589 40.794ZM43.1551 34.0863C43.1551 34.0865 43.1558 34.09 43.1567 34.0965C43.1554 34.0895 43.155 34.0862 43.1551 34.0863ZM22.1565 34.1024C22.1565 34.1024 22.1563 34.1043 22.1556 34.1084C22.1561 34.1045 22.1564 34.1025 22.1565 34.1024Z" fill="#FF8A00" stroke="black" stroke-width="3" stroke-miterlimit="10" stroke-linejoin="round"/>
</svg>
