<svg width="66" height="66" viewBox="0 0 66 66" fill="none" xmlns="http://www.w3.org/2000/svg">
<rect x="2" y="2" width="62" height="62" rx="14" fill="#0C6DFF" stroke="#0F0F0F" stroke-width="4"/>
<path d="M49 24.098C43.6471 24.098 38.8039 19 38.8039 19V39.3349C38.8039 43.7307 35.2405 47.2941 30.8447 47.2941H30.4286C26.3259 47.2941 23 43.9682 23 39.8655V39.4286C23 35.3259 26.3259 32 30.4286 32H31.451" stroke="#FF8A00" stroke-width="4" stroke-linecap="square"/>
<path d="M46 24.098C40.6471 24.098 35.8039 19 35.8039 19V39.3349C35.8039 43.7307 32.2405 47.2941 27.8447 47.2941H27.4286C23.3259 47.2941 20 43.9682 20 39.8655V39.4286C20 35.3259 23.3259 32 27.4286 32H28.451" stroke="#0F0F0F" stroke-width="4" stroke-linecap="square"/>
</svg>
