<svg width="107" height="107" viewBox="0 0 107 107" fill="none" xmlns="http://www.w3.org/2000/svg">
<path d="M105.354 53.5C105.354 82.1381 82.1381 105.354 53.5 105.354C24.8619 105.354 1.64615 82.1381 1.64615 53.5C1.64615 24.8619 24.8619 1.64615 53.5 1.64615C82.1381 1.64615 105.354 24.8619 105.354 53.5ZM53.5 67.4923C61.2277 67.4923 67.4923 61.2277 67.4923 53.5C67.4923 45.7723 61.2277 39.5077 53.5 39.5077C45.7723 39.5077 39.5077 45.7723 39.5077 53.5C39.5077 61.2277 45.7723 67.4923 53.5 67.4923Z" fill="#FF4392" stroke="white" stroke-width="3.29231"/>
<rect width="26.7054" height="28.8108" transform="translate(36.6301 41.3828) rotate(90)" fill="#FF4392"/>
<path fill-rule="evenodd" clip-rule="evenodd" d="M29.3544 50.8397C29.3544 50.5279 29.1016 50.2751 28.7898 50.2751L27.0678 50.2751C26.756 50.2751 26.5032 50.0223 26.5032 49.7105L26.5032 47.9884C26.5032 47.6766 26.2504 47.4238 25.9386 47.4238L15.6628 47.4238C15.351 47.4238 15.0982 47.6766 15.0982 47.9884L15.0982 52.5617C15.0982 52.8735 15.351 53.1263 15.6628 53.1263L17.3848 53.1263C17.6967 53.1263 17.9494 53.3791 17.9494 53.6909L17.9494 61.1155C17.9494 61.4273 18.2022 61.6801 18.514 61.6801L28.7898 61.6801C29.1016 61.6801 29.3544 61.4273 29.3544 61.1155L29.3544 50.8397ZM23.0873 53.1263C23.3992 53.1263 23.6519 52.8735 23.6519 52.5617L23.6519 50.8397C23.6519 50.5279 23.3992 50.2751 23.0873 50.2751L21.3653 50.2751C21.0535 50.2751 20.8007 50.5279 20.8007 50.8397L20.8007 52.5617C20.8007 52.8735 21.0535 53.1263 21.3653 53.1263L23.0873 53.1263Z" fill="white"/>
<rect width="26.7054" height="28.8108" transform="translate(70.3696 68.0879) rotate(-90)" fill="#FF4392"/>
<path fill-rule="evenodd" clip-rule="evenodd" d="M77.6453 58.631C77.6453 58.9428 77.898 59.1956 78.2099 59.1956L79.9319 59.1956C80.2437 59.1956 80.4965 59.4484 80.4965 59.7602L80.4965 61.4823C80.4965 61.7941 80.7493 62.0469 81.0611 62.0469L91.3369 62.0469C91.6487 62.0469 91.9015 61.7941 91.9015 61.4823L91.9015 56.909C91.9015 56.5972 91.6487 56.3444 91.3369 56.3444L89.6149 56.3444C89.303 56.3444 89.0503 56.0916 89.0503 55.7798L89.0503 48.3552C89.0503 48.0434 88.7975 47.7906 88.4857 47.7906L78.2099 47.7906C77.898 47.7906 77.6453 48.0434 77.6453 48.3552L77.6453 58.631ZM83.9124 56.3444C83.6005 56.3444 83.3478 56.5972 83.3478 56.909L83.3478 58.631C83.3478 58.9428 83.6005 59.1956 83.9124 59.1956L85.6344 59.1956C85.9462 59.1956 86.199 58.9428 86.199 58.631L86.199 56.909C86.199 56.5972 85.9462 56.3444 85.6344 56.3444L83.9124 56.3444Z" fill="white"/>
<rect width="26.7054" height="28.8108" transform="translate(66.8533 37.8652) rotate(-180)" fill="#FF4392"/>
<path fill-rule="evenodd" clip-rule="evenodd" d="M57.3963 30.5898C57.7082 30.5898 57.9609 30.3371 57.9609 30.0252L57.9609 28.3032C57.9609 27.9914 58.2137 27.7386 58.5256 27.7386L60.2476 27.7386C60.5594 27.7386 60.8122 27.4858 60.8122 27.174L60.8122 16.8982C60.8122 16.5864 60.5594 16.3336 60.2476 16.3336L55.6743 16.3336C55.3625 16.3336 55.1097 16.5864 55.1097 16.8982L55.1097 18.6202C55.1097 18.9321 54.8569 19.1849 54.5451 19.1849L47.1206 19.1848C46.8087 19.1848 46.556 19.4376 46.556 19.7495L46.556 30.0252C46.556 30.3371 46.8087 30.5898 47.1206 30.5898L57.3963 30.5898ZM55.1097 24.3227C55.1097 24.6346 55.3625 24.8873 55.6743 24.8873L57.3963 24.8873C57.7082 24.8873 57.9609 24.6346 57.9609 24.3227L57.9609 22.6007C57.9609 22.2889 57.7082 22.0361 57.3963 22.0361L55.6743 22.0361C55.3625 22.0361 55.1097 22.2889 55.1097 22.6007L55.1097 24.3227Z" fill="#0C6DFF"/>
<rect width="26.7054" height="28.8108" transform="translate(40.1479 71.6045)" fill="#FF4392"/>
<path fill-rule="evenodd" clip-rule="evenodd" d="M49.6049 78.8799C49.2931 78.8799 49.0403 79.1327 49.0403 79.4445L49.0403 81.1665C49.0403 81.4783 48.7876 81.7311 48.4757 81.7311L46.7537 81.7311C46.4419 81.7311 46.1891 81.9839 46.1891 82.2957L46.1891 92.5715C46.1891 92.8833 46.4419 93.1361 46.7537 93.1361L51.327 93.1361C51.6388 93.1361 51.8916 92.8833 51.8916 92.5715L51.8916 90.8495C51.8916 90.5377 52.1444 90.2849 52.4562 90.2849L59.8807 90.2849C60.1925 90.2849 60.4453 90.0321 60.4453 89.7203L60.4453 79.4445C60.4453 79.1327 60.1925 78.8799 59.8807 78.8799L49.6049 78.8799ZM51.8916 85.147C51.8916 84.8352 51.6388 84.5824 51.327 84.5824L49.6049 84.5824C49.2931 84.5824 49.0403 84.8352 49.0403 85.147L49.0403 86.869C49.0403 87.1808 49.2931 87.4336 49.6049 87.4336L51.327 87.4336C51.6388 87.4336 51.8916 87.1808 51.8916 86.869L51.8916 85.147Z" fill="#0C6DFF"/>
</svg>
