<svg width="225" height="225" viewBox="0 0 225 225" fill="none" xmlns="http://www.w3.org/2000/svg">
<rect x="28.5719" y="80.8988" width="167.953" height="73.4267" fill="#0F0F0F" stroke="#0F0F0F" stroke-width="4.21992"/>
<path d="M30.6819 154.326H28.5719V156.436V160.655C28.5719 176.737 41.6083 189.773 57.6894 189.773H167.407C183.489 189.773 196.525 176.737 196.525 160.655V156.436V154.326H194.415H30.6819Z" fill="#FF8A00" stroke="#0F0F0F" stroke-width="4.21992"/>
<path d="M28.5719 78.7888L28.5719 80.8988H30.6818L194.415 80.8988H196.525V78.7889C196.525 54.8041 177.274 35.3236 153.482 35.3236C134.355 35.3236 118.163 47.913 112.548 65.3112C106.934 47.913 90.7419 35.3236 71.6151 35.3236C47.8226 35.3236 28.5719 54.8041 28.5719 78.7888Z" fill="#FF8A00" stroke="#0F0F0F" stroke-width="4.21992"/>
<path d="M83.0089 80.8988H80.8989V83.0088V147.152C80.8989 164.165 94.6909 177.957 111.704 177.957H113.392C130.406 177.957 144.198 164.165 144.198 147.152V83.0088V80.8988H142.088H83.0089Z" fill="#0C6DFF" stroke="#0F0F0F" stroke-width="4.21992"/>
<path d="M112.548 80.8984V135.335" stroke="#0F0F0F" stroke-width="5.06391"/>
<path d="M81.3208 80.8988H79.2108V83.0088V110.016C79.2108 112.114 80.9112 113.814 83.0088 113.814H108.328C110.426 113.814 112.126 112.114 112.126 110.016V83.0088V80.8988H110.016H81.3208Z" fill="white" stroke="#0F0F0F" stroke-width="4.21992"/>
<path d="M114.236 80.8988H112.126V83.0088V110.016C112.126 112.114 113.827 113.814 115.924 113.814H141.244C143.341 113.814 145.042 112.114 145.042 110.016V83.0088V80.8988H142.932H114.236Z" fill="white" stroke="#0F0F0F" stroke-width="4.21992"/>
<path d="M30.6818 80.8988H28.5719V83.0088V103.264C28.5719 105.362 30.2723 107.062 32.3698 107.062H49.2495C51.347 107.062 53.0474 105.362 53.0474 103.264V83.0088V80.8988H50.9375H30.6818Z" fill="white" stroke="#0F0F0F" stroke-width="4.21992"/>
<path d="M55.4811 80.8988H53.3712V83.0088V102.941C53.3712 105.038 55.0716 106.739 57.1691 106.739H75.4131C77.5106 106.739 79.211 105.038 79.211 102.941V83.0088V80.8988H77.101H55.4811Z" fill="white" stroke="#0F0F0F" stroke-width="4.21992"/>
<path d="M194.415 80.8988H196.525V83.0088V103.264C196.525 105.362 194.824 107.062 192.727 107.062H175.847C173.75 107.062 172.049 105.362 172.049 103.264V83.0088V80.8988H174.159H194.415Z" fill="white" stroke="#0F0F0F" stroke-width="4.21992"/>
<path d="M169.616 80.8988H171.726V83.0088V102.941C171.726 105.038 170.025 106.739 167.928 106.739H149.684C147.586 106.739 145.886 105.038 145.886 102.941V83.0088V80.8988H147.996H169.616Z" fill="white" stroke="#0F0F0F" stroke-width="4.21992"/>
</svg>
