<svg width="53" height="53" viewBox="0 0 53 53" fill="none" xmlns="http://www.w3.org/2000/svg">
<path d="M24.797 1.6363C25.2666 -0.442765 28.229 -0.442768 28.6986 1.6363L30.9839 11.7534C31.2883 13.1008 32.8346 13.7413 34.0026 13.0038L42.7724 7.46584C44.5746 6.3278 46.6693 8.4225 45.5313 10.2247L39.9933 18.9945C39.2558 20.1625 39.8963 21.7088 41.2437 22.0132L51.3608 24.2985C53.4399 24.7681 53.4399 27.7305 51.3608 28.2001L41.2437 30.4854C39.8963 30.7897 39.2558 32.336 39.9933 33.504L45.5313 42.2738C46.6693 44.076 44.5746 46.1708 42.7724 45.0327L34.0026 39.4948C32.8346 38.7572 31.2883 39.3977 30.9839 40.7451L28.6986 50.8622C28.229 52.9413 25.2666 52.9413 24.797 50.8623L22.5117 40.7451C22.2074 39.3977 20.6611 38.7572 19.4931 39.4948L10.7233 45.0327C8.92105 46.1707 6.82635 44.0761 7.96439 42.2739L13.5023 33.504C14.2399 32.336 13.5994 30.7897 12.252 30.4854L2.13485 28.2001C0.0557855 27.7305 0.0557823 24.7681 2.13485 24.2985L12.252 22.0132C13.5994 21.7088 14.2399 20.1625 13.5023 18.9945L7.9644 10.2247C6.82635 8.4225 8.92105 6.3278 10.7232 7.46584L19.4931 13.0038C20.6611 13.7413 22.2074 13.1009 22.5117 11.7534L24.797 1.6363Z" fill="#0F0F0F"/>
</svg>
