<svg width="1512" height="31" viewBox="0 0 1512 31" fill="none" xmlns="http://www.w3.org/2000/svg">
<rect width="15.4444" height="15.4444" fill="#0C6DFF"/>
<rect x="247.111" width="15.4444" height="15.4444" fill="#0C6DFF"/>
<rect x="123.556" width="15.4444" height="15.4444" fill="#0C6DFF"/>
<rect x="370.667" width="15.4444" height="15.4444" fill="#0C6DFF"/>
<rect x="61.7778" width="15.4444" height="15.4444" fill="#0C6DFF"/>
<rect x="308.889" width="15.4444" height="15.4444" fill="#0C6DFF"/>
<rect x="185.333" width="15.4444" height="15.4444" fill="#0C6DFF"/>
<rect x="30.8889" width="15.4444" height="15.4444" fill="#0C6DFF"/>
<rect x="278" width="15.4444" height="15.4444" fill="#0C6DFF"/>
<rect x="154.444" width="15.4444" height="15.4444" fill="#0C6DFF"/>
<rect x="401.556" width="15.4444" height="15.4444" fill="#0C6DFF"/>
<rect x="92.6667" width="15.4444" height="15.4444" fill="#0C6DFF"/>
<rect x="339.778" width="15.4444" height="15.4444" fill="#0C6DFF"/>
<rect x="216.222" width="15.4444" height="15.4444" fill="#0C6DFF"/>
<rect x="15.4443" y="15.4443" width="15.4444" height="15.4444" fill="#0C6DFF"/>
<rect x="262.556" y="15.4443" width="15.4444" height="15.4444" fill="#0C6DFF"/>
<rect x="139" y="15.4443" width="15.4444" height="15.4444" fill="#0C6DFF"/>
<rect x="386.111" y="15.4443" width="15.4444" height="15.4444" fill="#0C6DFF"/>
<rect x="77.2222" y="15.4443" width="15.4444" height="15.4444" fill="#0C6DFF"/>
<rect x="324.333" y="15.4443" width="15.4444" height="15.4444" fill="#0C6DFF"/>
<rect x="200.778" y="15.4443" width="15.4444" height="15.4444" fill="#0C6DFF"/>
<rect x="46.3333" y="15.4443" width="15.4444" height="15.4444" fill="#0C6DFF"/>
<rect x="293.444" y="15.4443" width="15.4444" height="15.4444" fill="#0C6DFF"/>
<rect x="169.889" y="15.4443" width="15.4444" height="15.4444" fill="#0C6DFF"/>
<rect x="108.111" y="15.4443" width="15.4444" height="15.4444" fill="#0C6DFF"/>
<rect x="355.222" y="15.4443" width="15.4444" height="15.4444" fill="#0C6DFF"/>
<rect x="231.667" y="15.4443" width="15.4444" height="15.4444" fill="#0C6DFF"/>
<rect width="15.4444" height="15.4444" transform="matrix(1 0 0 -1 417 30.8887)" fill="#0C6DFF"/>
<rect width="15.4444" height="15.4444" transform="matrix(1 0 0 -1 664.111 30.8887)" fill="#0C6DFF"/>
<rect width="15.4444" height="15.4444" transform="matrix(1 0 0 -1 540.556 30.8887)" fill="#0C6DFF"/>
<rect width="15.4444" height="15.4444" transform="matrix(1 0 0 -1 787.667 30.8887)" fill="#0C6DFF"/>
<rect width="15.4444" height="15.4444" transform="matrix(1 0 0 -1 478.778 30.8887)" fill="#0C6DFF"/>
<rect width="15.4444" height="15.4444" transform="matrix(1 0 0 -1 725.889 30.8887)" fill="#0C6DFF"/>
<rect width="15.4444" height="15.4444" transform="matrix(1 0 0 -1 602.333 30.8887)" fill="#0C6DFF"/>
<rect width="15.4444" height="15.4444" transform="matrix(1 0 0 -1 447.889 30.8887)" fill="#0C6DFF"/>
<rect width="15.4444" height="15.4444" transform="matrix(1 0 0 -1 695 30.8887)" fill="#0C6DFF"/>
<rect width="15.4444" height="15.4444" transform="matrix(1 0 0 -1 571.444 30.8887)" fill="#0C6DFF"/>
<rect width="15.4444" height="15.4444" transform="matrix(1 0 0 -1 818.556 30.8887)" fill="#0C6DFF"/>
<rect width="15.4444" height="15.4444" transform="matrix(1 0 0 -1 509.667 30.8887)" fill="#0C6DFF"/>
<rect width="15.4444" height="15.4444" transform="matrix(1 0 0 -1 756.778 30.8887)" fill="#0C6DFF"/>
<rect width="15.4444" height="15.4444" transform="matrix(1 0 0 -1 633.222 30.8887)" fill="#0C6DFF"/>
<rect width="15.4444" height="15.4444" transform="matrix(1 0 0 -1 432.444 15.4443)" fill="#0C6DFF"/>
<rect width="15.4444" height="15.4444" transform="matrix(1 0 0 -1 679.556 15.4443)" fill="#0C6DFF"/>
<rect width="15.4444" height="15.4444" transform="matrix(1 0 0 -1 556 15.4443)" fill="#0C6DFF"/>
<rect width="15.4444" height="15.4444" transform="matrix(1 0 0 -1 803.111 15.4443)" fill="#0C6DFF"/>
<rect width="15.4444" height="15.4444" transform="matrix(1 0 0 -1 494.222 15.4443)" fill="#0C6DFF"/>
<rect width="15.4444" height="15.4444" transform="matrix(1 0 0 -1 741.333 15.4443)" fill="#0C6DFF"/>
<rect width="15.4444" height="15.4444" transform="matrix(1 0 0 -1 617.778 15.4443)" fill="#0C6DFF"/>
<rect width="15.4444" height="15.4444" transform="matrix(1 0 0 -1 463.333 15.4443)" fill="#0C6DFF"/>
<rect width="15.4444" height="15.4444" transform="matrix(1 0 0 -1 710.444 15.4443)" fill="#0C6DFF"/>
<rect width="15.4444" height="15.4444" transform="matrix(1 0 0 -1 586.889 15.4443)" fill="#0C6DFF"/>
<rect width="15.4444" height="15.4444" transform="matrix(1 0 0 -1 525.111 15.4443)" fill="#0C6DFF"/>
<rect width="15.4444" height="15.4444" transform="matrix(1 0 0 -1 772.222 15.4443)" fill="#0C6DFF"/>
<rect width="15.4444" height="15.4444" transform="matrix(1 0 0 -1 648.667 15.4443)" fill="#0C6DFF"/>
<rect x="834" width="15.4091" height="15.4444" fill="#0C6DFF"/>
<rect x="1080.55" width="15.4091" height="15.4444" fill="#0C6DFF"/>
<rect x="957.273" width="15.4091" height="15.4444" fill="#0C6DFF"/>
<rect x="1203.82" width="15.4091" height="15.4444" fill="#0C6DFF"/>
<rect x="895.636" width="15.4091" height="15.4444" fill="#0C6DFF"/>
<rect x="1142.18" width="15.4091" height="15.4444" fill="#0C6DFF"/>
<rect x="1018.91" width="15.4091" height="15.4444" fill="#0C6DFF"/>
<rect x="864.818" width="15.4091" height="15.4444" fill="#0C6DFF"/>
<rect x="1111.36" width="15.4091" height="15.4444" fill="#0C6DFF"/>
<rect x="988.091" width="15.4091" height="15.4444" fill="#0C6DFF"/>
<rect x="1234.64" width="15.4091" height="15.4444" fill="#0C6DFF"/>
<rect x="926.455" width="15.4091" height="15.4444" fill="#0C6DFF"/>
<rect x="1173" width="15.4091" height="15.4444" fill="#0C6DFF"/>
<rect x="1049.73" width="15.4091" height="15.4444" fill="#0C6DFF"/>
<rect x="849.409" y="15.4443" width="15.4091" height="15.4444" fill="#0C6DFF"/>
<rect x="1095.95" y="15.4443" width="15.4091" height="15.4444" fill="#0C6DFF"/>
<rect x="972.682" y="15.4443" width="15.4091" height="15.4444" fill="#0C6DFF"/>
<rect x="1219.23" y="15.4443" width="15.4091" height="15.4444" fill="#0C6DFF"/>
<rect x="911.045" y="15.4443" width="15.4091" height="15.4444" fill="#0C6DFF"/>
<rect x="1157.59" y="15.4443" width="15.4091" height="15.4444" fill="#0C6DFF"/>
<rect x="1034.32" y="15.4443" width="15.4091" height="15.4444" fill="#0C6DFF"/>
<rect x="880.227" y="15.4443" width="15.4091" height="15.4444" fill="#0C6DFF"/>
<rect x="1126.77" y="15.4443" width="15.4091" height="15.4444" fill="#0C6DFF"/>
<rect x="1003.5" y="15.4443" width="15.4091" height="15.4444" fill="#0C6DFF"/>
<rect x="941.864" y="15.4443" width="15.4091" height="15.4444" fill="#0C6DFF"/>
<rect x="1188.41" y="15.4443" width="15.4091" height="15.4444" fill="#0C6DFF"/>
<rect x="1065.14" y="15.4443" width="15.4091" height="15.4444" fill="#0C6DFF"/>
<rect width="15.4091" height="15.4444" transform="matrix(1 0 0 -1 1250.05 30.8887)" fill="#0C6DFF"/>
<rect width="15.4091" height="15.4444" transform="matrix(1 0 0 -1 1496.59 30.8887)" fill="#0C6DFF"/>
<rect width="15.4091" height="15.4444" transform="matrix(1 0 0 -1 1373.32 30.8887)" fill="#0C6DFF"/>
<rect width="15.4091" height="15.4444" transform="matrix(1 0 0 -1 1311.68 30.8887)" fill="#0C6DFF"/>
<rect width="15.4091" height="15.4444" transform="matrix(1 0 0 -1 1434.95 30.8887)" fill="#0C6DFF"/>
<rect width="15.4091" height="15.4444" transform="matrix(1 0 0 -1 1280.86 30.8887)" fill="#0C6DFF"/>
<rect width="15.4091" height="15.4444" transform="matrix(1 0 0 -1 1404.14 30.8887)" fill="#0C6DFF"/>
<rect width="15.4091" height="15.4444" transform="matrix(1 0 0 -1 1342.5 30.8887)" fill="#0C6DFF"/>
<rect width="15.4091" height="15.4444" transform="matrix(1 0 0 -1 1465.77 30.8887)" fill="#0C6DFF"/>
<rect width="15.4091" height="15.4444" transform="matrix(1 0 0 -1 1265.45 15.4443)" fill="#0C6DFF"/>
<rect width="15.4091" height="15.4444" transform="matrix(1 0 0 -1 1388.73 15.4443)" fill="#0C6DFF"/>
<rect width="15.4091" height="15.4444" transform="matrix(1 0 0 -1 1327.09 15.4443)" fill="#0C6DFF"/>
<rect width="15.4091" height="15.4444" transform="matrix(1 0 0 -1 1450.36 15.4443)" fill="#0C6DFF"/>
<rect width="15.4091" height="15.4444" transform="matrix(1 0 0 -1 1296.27 15.4443)" fill="#0C6DFF"/>
<rect width="15.4091" height="15.4444" transform="matrix(1 0 0 -1 1419.55 15.4443)" fill="#0C6DFF"/>
<rect width="15.4091" height="15.4444" transform="matrix(1 0 0 -1 1357.91 15.4443)" fill="#0C6DFF"/>
<rect width="15.4091" height="15.4444" transform="matrix(1 0 0 -1 1481.18 15.4443)" fill="#0C6DFF"/>
</svg>
