<svg width="176" height="176" viewBox="0 0 176 176" fill="none" xmlns="http://www.w3.org/2000/svg">
<path d="M65.8316 25.6738C59.2768 25.6738 53.9631 30.9876 53.9631 37.5422V138.2C53.9631 145.118 59.5714 150.726 66.4895 150.726H130.305C136.86 150.726 142.174 145.413 142.174 138.858C142.174 134.744 140.08 131.119 136.901 128.99C140.08 126.86 142.174 123.235 142.174 119.121C142.174 115.007 140.08 111.382 136.901 109.253C140.08 107.123 142.174 103.498 142.174 99.3844C142.174 95.2704 140.08 91.6452 136.901 89.5159C140.08 87.3866 142.174 83.7615 142.174 79.6475C142.174 73.0928 136.86 67.7791 130.305 67.7791H83.5947C80.3391 67.7791 77.7 65.1399 77.7 61.8843V37.5422C77.7 30.9876 72.3863 25.6738 65.8316 25.6738Z" fill="#FF8A00" stroke="#0F0F0F" stroke-width="4"/>
<rect x="53.9631" y="80.9893" width="61.1316" height="15.7368" transform="rotate(90 53.9631 80.9893)" fill="white" stroke="#0F0F0F" stroke-width="4"/>
</svg>
