<svg width="166" height="213" viewBox="0 0 166 213" fill="none" xmlns="http://www.w3.org/2000/svg">
<g clip-path="url(#clip0_679_10052)">
<path d="M84.5413 37.8437C60.2964 30.2177 36.0061 46.0565 31.6776 69.5408C31.0588 72.8977 30.8486 76.4075 31.1032 80.0229L35.6408 144.442C36.0957 150.901 40.4554 156.424 46.632 158.367C52.8087 160.31 59.5452 158.276 63.6157 153.241L104.212 103.019C122.468 80.4345 112.243 46.557 84.5413 37.8437Z" fill="#0F0F0F" stroke="#0F0F0F" stroke-width="2.99248"/>
<path d="M32.5958 79.9168C30.6294 52.0011 57.397 30.8732 84.0924 39.27C110.788 47.6668 120.641 80.3134 103.049 102.077L62.4521 152.299C58.7681 156.857 52.6712 158.697 47.081 156.938C41.4908 155.18 37.5451 150.181 37.1333 144.335L32.5958 79.9168Z" fill="#FF4392"/>
<path d="M63.401 105.053L53.6381 136.091" stroke="#0F0F0F" stroke-width="2.99248"/>
<mask id="path-4-outside-1_679_10052" maskUnits="userSpaceOnUse" x="21.7325" y="23.5887" width="104.541" height="97.3484" fill="black">
<rect fill="white" x="21.7325" y="23.5887" width="104.541" height="97.3484"/>
<path fill-rule="evenodd" clip-rule="evenodd" d="M84.0924 39.27C57.397 30.8732 30.6294 52.0011 32.5958 79.9168L33.7084 95.7135L93.0936 114.392L103.049 102.077C120.641 80.3134 110.788 47.6668 84.0924 39.27Z"/>
</mask>
<path fill-rule="evenodd" clip-rule="evenodd" d="M84.0924 39.27C57.397 30.8732 30.6294 52.0011 32.5958 79.9168L33.7084 95.7135L93.0936 114.392L103.049 102.077C120.641 80.3134 110.788 47.6668 84.0924 39.27Z" fill="#FF8A00"/>
<path d="M32.5958 79.9168L35.5808 79.7065L35.5808 79.7065L32.5958 79.9168ZM33.7084 95.7135L30.7234 95.9237L30.8666 97.9566L32.8106 98.5681L33.7084 95.7135ZM93.0936 114.392L92.1957 117.247L94.1397 117.859L95.4209 116.274L93.0936 114.392ZM103.049 102.077L105.376 103.958L105.376 103.958L103.049 102.077ZM35.5808 79.7065C33.7628 53.8958 58.512 34.361 83.1945 42.1246L84.9903 36.4154C56.282 27.3855 27.4961 50.1065 29.6107 80.1271L35.5808 79.7065ZM36.6935 95.5032L35.5808 79.7065L29.6107 80.1271L30.7234 95.9237L36.6935 95.5032ZM32.8106 98.5681L92.1957 117.247L93.9915 111.538L34.6063 92.8589L32.8106 98.5681ZM100.721 100.196L90.7664 112.511L95.4209 116.274L105.376 103.958L100.721 100.196ZM83.1945 42.1246C107.877 49.8882 116.987 80.0732 100.721 100.196L105.376 103.958C124.295 80.5536 113.699 45.4453 84.9903 36.4154L83.1945 42.1246Z" fill="#0F0F0F" mask="url(#path-4-outside-1_679_10052)"/>
<circle cx="72.1438" cy="77.2578" r="21.3681" transform="rotate(17.4604 72.1438 77.2578)" fill="white"/>
<circle cx="72.144" cy="77.2576" r="14.5691" transform="rotate(17.4604 72.144 77.2576)" fill="#0F0F0F"/>
<path d="M142.314 143.745C136.182 129.016 118.759 123.746 105.728 131.154C103.865 132.213 102.094 133.53 100.46 135.113L71.3442 163.319C68.425 166.148 67.5327 170.474 69.0948 174.226C70.6569 177.978 74.3554 180.393 78.4192 180.314L118.949 179.528C137.175 179.174 149.319 160.574 142.314 143.745Z" fill="#0F0F0F" stroke="#0F0F0F" stroke-width="1.87846"/>
<path d="M101.113 135.788C113.73 123.565 134.695 127.889 141.446 144.106C148.198 160.324 136.494 178.248 118.931 178.589L78.4009 179.375C74.723 179.447 71.3757 177.261 69.9619 173.865C68.5482 170.469 69.3557 166.554 71.9978 163.994L101.113 135.788Z" fill="#FF4392"/>
<path d="M101.483 160.743L82.6266 168.593" stroke="#0F0F0F" stroke-width="1.87846"/>
<mask id="path-11-outside-2_679_10052" maskUnits="userSpaceOnUse" x="88.627" y="118.47" width="65.067" height="68.3002" fill="black">
<rect fill="white" x="88.627" y="118.47" width="65.067" height="68.3002"/>
<path fill-rule="evenodd" clip-rule="evenodd" d="M141.446 144.106C134.695 127.889 113.73 123.565 101.113 135.788L93.9733 142.705L108.992 178.782L118.931 178.589C136.494 178.248 148.198 160.324 141.446 144.106Z"/>
</mask>
<path fill-rule="evenodd" clip-rule="evenodd" d="M141.446 144.106C134.695 127.889 113.73 123.565 101.113 135.788L93.9733 142.705L108.992 178.782L118.931 178.589C136.494 178.248 148.198 160.324 141.446 144.106Z" fill="#FF8A00"/>
<path d="M101.113 135.788L102.42 137.137L102.42 137.137L101.113 135.788ZM93.9733 142.705L92.6663 141.355L91.7475 142.246L92.2391 143.427L93.9733 142.705ZM108.992 178.782L107.258 179.503L107.749 180.684L109.028 180.66L108.992 178.782ZM118.931 178.589L118.967 180.467L118.967 180.467L118.931 178.589ZM102.42 137.137C114.086 125.836 133.47 129.833 139.712 144.828L143.181 143.384C135.92 125.944 113.374 121.294 99.8061 134.439L102.42 137.137ZM95.2804 144.054L102.42 137.137L99.8061 134.439L92.6663 141.355L95.2804 144.054ZM92.2391 143.427L107.258 179.503L110.726 178.06L95.7075 141.983L92.2391 143.427ZM118.894 176.71L108.955 176.903L109.028 180.66L118.967 180.467L118.894 176.71ZM139.712 144.828C145.955 159.823 135.134 176.395 118.894 176.71L118.967 180.467C137.855 180.1 150.441 160.825 143.181 143.384L139.712 144.828Z" fill="#0F0F0F" mask="url(#path-11-outside-2_679_10052)"/>
<circle cx="118.369" cy="153.713" r="13.4133" transform="rotate(67.3983 118.369 153.713)" fill="white"/>
<circle cx="118.369" cy="153.714" r="9.14544" transform="rotate(67.3983 118.369 153.714)" fill="#0F0F0F"/>
</g>
<defs>
<clipPath id="clip0_679_10052">
<rect width="166" height="213" fill="white"/>
</clipPath>
</defs>
</svg>
