<?xml version="1.0" encoding="UTF-8"?><svg id="Layer_2" xmlns="http://www.w3.org/2000/svg" viewBox="0 0 57.63 33.21"><defs><style>.cls-1{fill:#f68a1f;}.cls-2{fill:#101010;}</style></defs><g id="Layer_3"><rect class="cls-1" x="1.5" y="1.5" width="54.63" height="30.21"/><path class="cls-2" d="m54.63,3v27.21H3V3h51.63m3-3H0v33.21h57.63V0h0Z"/><path class="cls-2" d="m49.21,8.83c.28,0,.49-.08.64-.22.15-.15.22-.36.22-.64v-1.7c0-.28-.07-.49-.22-.64-.15-.15-.36-.22-.64-.22h-6.14c-.28,0-.49.08-.64.22s-.22.36-.22.64v18.1h-18.12V6.27c0-.28-.07-.49-.22-.64-.15-.15-.36-.22-.64-.22h-2.02c-.28,0-.49.08-.64.22s-.22.36-.22.64v21.54h25.61v-8.93h3.3c.28,0,.48-.08.62-.22.14-.15.21-.36.21-.64v-1.7c0-.28-.07-.49-.21-.64-.14-.15-.35-.22-.62-.22h-3.3v-6.62h3.26Z"/><path class="cls-2" d="m31.44,7.98c.21,0,.37-.06.48-.17.11-.11.17-.27.17-.48v-1.27c0-.21-.06-.37-.17-.48-.11-.11-.27-.17-.48-.17h-4.62c-.21,0-.37.06-.48.17s-.17.27-.17.48v16.19h5.92v-3.57h-3.1v-4.76h2.48c.19,0,.34-.05.46-.16.11-.1.17-.26.17-.47v-1.27c0-.21-.06-.37-.17-.48-.11-.11-.26-.17-.46-.17h-2.48v-3.38h2.45Z"/><path class="cls-2" d="m39.46,7.98c.21,0,.37-.06.48-.17.11-.11.17-.27.17-.48v-1.27c0-.21-.06-.37-.17-.48-.11-.11-.27-.17-.48-.17h-4.62c-.21,0-.37.06-.48.17s-.17.27-.17.48v16.19h5.92v-2.57h-3.1v-4.76h2.48c.19,0,.34-.05.46-.16.11-.1.17-.26.17-.47v-1.27c0-.21-.06-.37-.17-.48-.11-.11-.26-.17-.46-.17h-2.48v-4.38h2.45Z"/><path class="cls-2" d="m18.24,19.42c0-.23-.04-.44-.13-.61-.09-.17-.22-.34-.42-.51l-2.21-1.98,2.11-1.02c.38-.19.58-.55.58-1.09v-7.94c0-.28-.08-.49-.22-.64-.15-.15-.35-.22-.61-.22h-2.05c-.28,0-.49.08-.64.22-.15.15-.22.36-.22.64v7.26l-3.14,1.41V6.27c0-.28-.07-.49-.22-.64-.15-.15-.36-.22-.64-.22h-2.02c-.28,0-.49.08-.64.22s-.22.36-.22.64v21.54h3.75v-9.76s1.05-.26,1.05-.26l2.14,2.18v7.84h3.75v-8.38Z"/></g></svg>