<svg width="1257" height="77" viewBox="0 0 1257 77" fill="none" xmlns="http://www.w3.org/2000/svg">
<rect width="1256" height="76" transform="translate(0.365479 0.5)" fill="#FF8A00"/>
<path d="M30.9122 49.5164C30.9122 53.4447 28.0024 56.5 23.8317 56.5H16.7996L16.7996 20.1273H23.5892V22.6007H30.9122V28.9053H23.5892V50.1954H24.0256C24.2196 50.1954 24.3651 49.8559 24.3651 49.5164V29.6812H30.9122V49.5164ZM40.2062 56.5V49.2255H39.4302V56.5H32.6407V20.1273H39.4302V42.9209H40.2062V20.1273H46.9957V56.5H40.2062ZM62.8311 50.0014V56.5H48.7185V20.1273L62.8311 20.1273V42.1449H56.284V26.3834H55.5081V42.9209H62.8311V49.2255H55.5081V50.0014H62.8311ZM64.5596 56.5V20.1273H86.0922V56.5L79.3026 56.5V26.3834H78.5267V56.5H72.1251V26.3834H71.3491V56.5H64.5596ZM101.949 50.0014V56.5H87.8362V20.1273H101.949V42.1449H95.4017V26.3834H94.6258V42.9209H101.949V49.2255H94.6258V50.0014H101.949Z" fill="#0F0F0F"/>
<path d="M148.912 49.5164C148.912 53.4447 146.002 56.5 141.832 56.5H134.8V20.1273H141.589V22.6007H148.912V28.9053H141.589V50.1954H142.026C142.22 50.1954 142.365 49.8559 142.365 49.5164V29.6812H148.912V49.5164ZM158.206 56.5V49.2255H157.43V56.5H150.641V20.1273H157.43V42.9209H158.206V20.1273H164.996V56.5H158.206ZM180.831 50.0014V56.5H166.719V20.1273L180.831 20.1273V42.1449H174.284V26.3834H173.508V42.9209H180.831V49.2255H173.508V50.0014H180.831ZM182.56 56.5V20.1273H204.092V56.5L197.303 56.5V26.3834H196.527V56.5H190.125V26.3834H189.349V56.5H182.56ZM219.949 50.0014V56.5H205.836V20.1273H219.949V42.1449H213.402V26.3834H212.626V42.9209H219.949V49.2255H212.626V50.0014H219.949Z" fill="#0F0F0F"/>
<path d="M266.912 49.5164C266.912 53.4447 264.002 56.5 259.832 56.5H252.8V20.1273H259.589V22.6007H266.912V28.9053H259.589V50.1954H260.026C260.22 50.1954 260.365 49.8559 260.365 49.5164V29.6812H266.912V49.5164ZM276.206 56.5V49.2255H275.43V56.5H268.641V20.1273H275.43V42.9209H276.206V20.1273H282.996V56.5H276.206ZM298.831 50.0014V56.5H284.719V20.1273L298.831 20.1273V42.1449H292.284V26.3834H291.508V42.9209H298.831V49.2255H291.508V50.0014H298.831ZM300.56 56.5V20.1273H322.092V56.5L315.303 56.5V26.3834H314.527V56.5H308.125V26.3834H307.349V56.5H300.56ZM337.949 50.0014V56.5H323.836V20.1273H337.949V42.1449H331.402V26.3834H330.626V42.9209H337.949V49.2255H330.626V50.0014H337.949Z" fill="#0F0F0F"/>
<path d="M371.186 56.5V20.1273H392.718V56.5H385.929V26.3834H385.153V56.5H378.751V26.3834H377.975V56.5H371.186ZM394.462 56.5V20.1273H401.252V50.2439H402.028V20.1273L408.818 20.1273V56.5H394.462ZM410.492 56.5V50.0014H417.378C417.669 50.0014 417.815 49.7104 417.815 49.371V49.2255H410.492V27.2564C410.492 22.9886 413.256 20.1273 417.863 20.1273H424.604V42.1449H418.057V26.3834H417.718C417.427 26.3834 417.281 26.8199 417.281 27.2564V42.9209H424.604V49.371C424.604 53.6387 421.986 56.5 417.378 56.5H410.492ZM433.561 56.5H426.287V20.1273H433.561V56.5ZM435.259 56.5V27.2564C435.259 22.9886 437.878 20.1273 442.485 20.1273H449.614V42.1449H442.825V26.3834H442.485C442.194 26.3834 442.049 26.8199 442.049 27.2564V50.1954H442.388C442.679 50.1954 442.825 49.8074 442.825 49.371V42.9209H449.614V49.371C449.614 53.6387 446.996 56.5 442.34 56.5H435.259Z" fill="#0F0F0F"/>
<path d="M483.186 56.5V20.1273H504.718V56.5H497.929V26.3834H497.153V56.5H490.751V26.3834H489.975V56.5H483.186ZM506.462 56.5V20.1273H513.252V50.2439H514.028V20.1273L520.818 20.1273V56.5H506.462ZM522.492 56.5V50.0014H529.378C529.669 50.0014 529.815 49.7104 529.815 49.371V49.2255H522.492V27.2564C522.492 22.9886 525.256 20.1273 529.863 20.1273H536.604V42.1449H530.057V26.3834H529.718C529.427 26.3834 529.281 26.8199 529.281 27.2564V42.9209H536.604V49.371C536.604 53.6387 533.986 56.5 529.378 56.5H522.492ZM545.561 56.5H538.287V20.1273H545.561V56.5ZM547.259 56.5V27.2564C547.259 22.9886 549.878 20.1273 554.485 20.1273H561.614V42.1449H554.825V26.3834H554.485C554.194 26.3834 554.049 26.8199 554.049 27.2564V50.1954H554.388C554.679 50.1954 554.825 49.8074 554.825 49.371V42.9209H561.614V49.371C561.614 53.6387 558.996 56.5 554.34 56.5H547.259Z" fill="#0F0F0F"/>
<path d="M595.186 56.5V20.1273H616.718V56.5H609.929V26.3834H609.153V56.5H602.751V26.3834H601.975V56.5H595.186ZM618.462 56.5L618.462 20.1273H625.252V50.2439H626.028V20.1273L632.818 20.1273V56.5H618.462ZM634.492 56.5V50.0014H641.378C641.669 50.0014 641.815 49.7104 641.815 49.371V49.2255H634.492V27.2564C634.492 22.9886 637.256 20.1273 641.863 20.1273H648.604V42.1449H642.057V26.3834H641.718C641.427 26.3834 641.281 26.8199 641.281 27.2564V42.9209H648.604V49.371C648.604 53.6387 645.986 56.5 641.378 56.5H634.492ZM657.561 56.5H650.287V20.1273H657.561V56.5ZM659.259 56.5V27.2564C659.259 22.9886 661.878 20.1273 666.485 20.1273H673.614V42.1449H666.825V26.3834H666.485C666.194 26.3834 666.049 26.8199 666.049 27.2564V50.1954H666.388C666.679 50.1954 666.825 49.8074 666.825 49.371V42.9209H673.614V49.371C673.614 53.6387 670.996 56.5 666.34 56.5H659.259Z" fill="#0F0F0F"/>
<path d="M707.186 56.5V20.1273H728.718V56.5H721.929V26.3834H721.153V56.5H714.751V26.3834H713.975V56.5H707.186ZM730.462 56.5L730.462 20.1273H737.252V50.2439H738.028V20.1273L744.818 20.1273V56.5H730.462ZM746.492 56.5V50.0014H753.378C753.669 50.0014 753.815 49.7104 753.815 49.371V49.2255H746.492V27.2564C746.492 22.9886 749.256 20.1273 753.863 20.1273H760.604V42.1449H754.057V26.3834H753.718C753.427 26.3834 753.281 26.8199 753.281 27.2564V42.9209H760.604V49.371C760.604 53.6387 757.986 56.5 753.378 56.5H746.492ZM769.561 56.5H762.287V20.1273H769.561V56.5ZM771.259 56.5V27.2564C771.259 22.9886 773.878 20.1273 778.485 20.1273H785.614V42.1449H778.825V26.3834H778.485C778.194 26.3834 778.049 26.8199 778.049 27.2564V50.1954H778.388C778.679 50.1954 778.825 49.8074 778.825 49.371V42.9209H785.614V49.371C785.614 53.6387 782.996 56.5 778.34 56.5H771.259Z" fill="#0F0F0F"/>
<path d="M819.186 56.5V20.1273H840.718V56.5H833.929V26.3834H833.153V56.5H826.751V26.3834H825.975V56.5H819.186ZM842.462 56.5L842.462 20.1273H849.252V50.2439H850.028V20.1273L856.818 20.1273V56.5H842.462ZM858.492 56.5V50.0014H865.378C865.669 50.0014 865.815 49.7104 865.815 49.371V49.2255H858.492V27.2564C858.492 22.9886 861.256 20.1273 865.863 20.1273H872.604V42.1449H866.057V26.3834H865.718C865.427 26.3834 865.281 26.8199 865.281 27.2564V42.9209H872.604V49.371C872.604 53.6387 869.986 56.5 865.378 56.5H858.492ZM881.561 56.5H874.287V20.1273H881.561V56.5ZM883.259 56.5V27.2564C883.259 22.9886 885.878 20.1273 890.485 20.1273H897.614V42.1449H890.825V26.3834H890.485C890.194 26.3834 890.049 26.8199 890.049 27.2564V50.1954H890.388C890.679 50.1954 890.825 49.8074 890.825 49.371V42.9209H897.614V49.371C897.614 53.6387 894.996 56.5 890.34 56.5H883.259Z" fill="#0F0F0F"/>
<path d="M931.186 56.5V20.1273H952.718V56.5H945.929V26.3834H945.153V56.5H938.751V26.3834H937.975V56.5H931.186ZM954.462 56.5L954.462 20.1273H961.252V50.2439H962.028V20.1273L968.818 20.1273V56.5H954.462ZM970.492 56.5V50.0014H977.378C977.669 50.0014 977.815 49.7104 977.815 49.371V49.2255H970.492V27.2564C970.492 22.9886 973.256 20.1273 977.863 20.1273H984.604V42.1449H978.057V26.3834H977.718C977.427 26.3834 977.281 26.8199 977.281 27.2564V42.9209H984.604V49.371C984.604 53.6387 981.986 56.5 977.378 56.5H970.492ZM993.561 56.5H986.287V20.1273H993.561V56.5ZM995.259 56.5V27.2564C995.259 22.9886 997.878 20.1273 1002.49 20.1273H1009.61V42.1449H1002.82V26.3834H1002.49C1002.19 26.3834 1002.05 26.8199 1002.05 27.2564V50.1954H1002.39C1002.68 50.1954 1002.82 49.8074 1002.82 49.371V42.9209H1009.61V49.371C1009.61 53.6387 1007 56.5 1002.34 56.5H995.259Z" fill="#0F0F0F"/>
<path d="M1043.19 56.5V20.1273H1064.72V56.5H1057.93V26.3834H1057.15V56.5H1050.75V26.3834H1049.98V56.5H1043.19ZM1066.46 56.5V20.1273H1073.25V50.2439H1074.03V20.1273L1080.82 20.1273V56.5H1066.46ZM1082.49 56.5V50.0014H1089.38C1089.67 50.0014 1089.81 49.7104 1089.81 49.371V49.2255H1082.49V27.2564C1082.49 22.9886 1085.26 20.1273 1089.86 20.1273H1096.6V42.1449H1090.06V26.3834H1089.72C1089.43 26.3834 1089.28 26.8199 1089.28 27.2564V42.9209H1096.6V49.371C1096.6 53.6387 1093.99 56.5 1089.38 56.5H1082.49ZM1105.56 56.5H1098.29V20.1273H1105.56V56.5ZM1107.26 56.5V27.2564C1107.26 22.9886 1109.88 20.1273 1114.49 20.1273H1121.61V42.1449H1114.82V26.3834H1114.49C1114.19 26.3834 1114.05 26.8199 1114.05 27.2564V50.1954H1114.39C1114.68 50.1954 1114.82 49.8074 1114.82 49.371V42.9209H1121.61V49.371C1121.61 53.6387 1119 56.5 1114.34 56.5H1107.26Z" fill="#0F0F0F"/>
<path d="M1168.91 49.5164C1168.91 53.4447 1166 56.5 1161.83 56.5H1154.8V20.1273H1161.59V22.6007H1168.91V28.9053H1161.59V50.1954H1162.03C1162.22 50.1954 1162.37 49.8559 1162.37 49.5164V29.6812H1168.91V49.5164ZM1178.21 56.5V49.2255H1177.43V56.5H1170.64V20.1273H1177.43V42.9209H1178.21V20.1273H1185V56.5H1178.21ZM1200.83 50.0014V56.5H1186.72V20.1273L1200.83 20.1273V42.1449H1194.28V26.3834H1193.51V42.9209H1200.83V49.2255H1193.51V50.0014H1200.83ZM1202.56 56.5V20.1273H1224.09V56.5L1217.3 56.5V26.3834H1216.53V56.5H1210.13V26.3834H1209.35V56.5H1202.56ZM1239.95 50.0014V56.5H1225.84V20.1273H1239.95V42.1449H1233.4V26.3834H1232.63V42.9209H1239.95V49.2255H1232.63V50.0014H1239.95Z" fill="#0F0F0F"/>
</svg>
