<svg width="148" height="148" viewBox="0 0 148 148" fill="none" xmlns="http://www.w3.org/2000/svg">
<path d="M54.7616 34.2412H115.842L103.987 134.072H54.7616V34.2412Z" fill="#0C6DFF" stroke="#0F0F0F" stroke-width="3"/>
<path d="M44.9454 134.072L32.4666 34.2412H93.4497L87.8343 134.072H44.9454Z" fill="#FF8A00" stroke="#0F0F0F" stroke-width="3"/>
<mask id="path-3-inside-1_688_10066" fill="white">
<path fill-rule="evenodd" clip-rule="evenodd" d="M59.0457 35.3115H69.3288V35.3116H107.89V31.4555C107.89 20.807 99.2579 12.1748 88.6095 12.1748C85.837 12.1748 83.2012 12.7599 80.8189 13.8135C79.0516 12.7721 76.9914 12.1748 74.7916 12.1748C68.7278 12.1748 63.7242 16.7142 62.9936 22.5802C60.6652 23.4884 58.7137 25.1502 57.439 27.2657C55.4709 23.9995 51.8899 21.815 47.7986 21.815C41.5871 21.815 36.5516 26.8505 36.5516 33.0621V35.3115H55.8323H59.0457Z"/>
</mask>
<path fill-rule="evenodd" clip-rule="evenodd" d="M59.0457 35.3115H69.3288V35.3116H107.89V31.4555C107.89 20.807 99.2579 12.1748 88.6095 12.1748C85.837 12.1748 83.2012 12.7599 80.8189 13.8135C79.0516 12.7721 76.9914 12.1748 74.7916 12.1748C68.7278 12.1748 63.7242 16.7142 62.9936 22.5802C60.6652 23.4884 58.7137 25.1502 57.439 27.2657C55.4709 23.9995 51.8899 21.815 47.7986 21.815C41.5871 21.815 36.5516 26.8505 36.5516 33.0621V35.3115H55.8323H59.0457Z" fill="#FED259"/>
<path d="M69.3288 35.3115H72.3288V32.3115H69.3288V35.3115ZM69.3288 35.3116H66.3288V38.3116H69.3288V35.3116ZM107.89 35.3116V38.3116H110.89V35.3116H107.89ZM80.8189 13.8135L79.2959 16.3982L80.6233 17.1803L82.0323 16.5572L80.8189 13.8135ZM62.9936 22.5802L64.0838 25.3751L65.7497 24.7253L65.9706 22.9509L62.9936 22.5802ZM57.439 27.2657L54.8694 28.814L57.439 33.0785L60.0086 28.814L57.439 27.2657ZM36.5516 35.3115H33.5516V38.3115H36.5516V35.3115ZM69.3288 32.3115H59.0457V38.3115H69.3288V32.3115ZM72.3288 35.3116V35.3115H66.3288V35.3116H72.3288ZM107.89 32.3116H69.3288V38.3116H107.89V32.3116ZM104.89 31.4555V35.3116H110.89V31.4555H104.89ZM88.6095 15.1748C97.6011 15.1748 104.89 22.4639 104.89 31.4555H110.89C110.89 19.1502 100.915 9.17475 88.6095 9.17475V15.1748ZM82.0323 16.5572C84.0398 15.6694 86.2629 15.1748 88.6095 15.1748V9.17475C85.4112 9.17475 82.3627 9.85048 79.6055 11.0698L82.0323 16.5572ZM74.7916 15.1748C76.4413 15.1748 77.9774 15.6213 79.2959 16.3982L82.3419 11.2288C80.1257 9.92298 77.5415 9.17475 74.7916 9.17475V15.1748ZM65.9706 22.9509C66.5165 18.5681 70.2601 15.1748 74.7916 15.1748V9.17475C67.1955 9.17475 60.9319 14.8602 60.0166 22.2094L65.9706 22.9509ZM60.0086 28.814C60.9452 27.2597 62.3795 26.0399 64.0838 25.3751L61.9034 19.7853C58.9509 20.937 56.4823 23.0407 54.8694 25.7174L60.0086 28.814ZM47.7986 24.815C50.7951 24.815 53.4216 26.4112 54.8694 28.814L60.0086 25.7174C57.5203 21.5878 52.9847 18.815 47.7986 18.815V24.815ZM39.5516 33.0621C39.5516 28.5074 43.2439 24.815 47.7986 24.815V18.815C39.9302 18.815 33.5516 25.1937 33.5516 33.0621H39.5516ZM39.5516 35.3115V33.0621H33.5516V35.3115H39.5516ZM55.8323 32.3115H36.5516V38.3115H55.8323V32.3115ZM59.0457 32.3115H55.8323V38.3115H59.0457V32.3115Z" fill="#0F0F0F" mask="url(#path-3-inside-1_688_10066)"/>
</svg>
