<svg width="200" height="26" viewBox="0 0 200 26" fill="none" xmlns="http://www.w3.org/2000/svg">
<path fill-rule="evenodd" clip-rule="evenodd" d="M9.39314 6.07422C9.09019 6.07422 8.8446 6.31981 8.8446 6.62276V8.29581C8.8446 8.59877 8.59901 8.84436 8.29606 8.84436H6.623C6.32005 8.84436 6.07446 9.08995 6.07446 9.3929V19.3764C6.07446 19.6793 6.32005 19.9249 6.62301 19.9249H11.0662C11.3691 19.9249 11.6147 19.6793 11.6147 19.3764V17.7033C11.6147 17.4004 11.8603 17.1548 12.1633 17.1548H19.3766C19.6796 17.1548 19.9251 16.9092 19.9251 16.6062V6.62276C19.9251 6.31981 19.6796 6.07422 19.3766 6.07422H9.39314ZM11.6147 12.163C11.6147 11.8601 11.3691 11.6145 11.0662 11.6145H9.39314C9.09019 11.6145 8.8446 11.8601 8.8446 12.163V13.8361C8.8446 14.139 9.09019 14.3846 9.39314 14.3846H11.0662C11.3691 14.3846 11.6147 14.139 11.6147 13.8361V12.163Z" fill="white"/>
<path fill-rule="evenodd" clip-rule="evenodd" d="M67.3387 6.07422C67.0357 6.07422 66.7902 6.31981 66.7902 6.62276V8.29581C66.7902 8.59877 66.5446 8.84436 66.2416 8.84436H64.5686C64.2656 8.84436 64.02 9.08995 64.02 9.3929V19.3764C64.02 19.6793 64.2656 19.9249 64.5686 19.9249H69.0118C69.3147 19.9249 69.5603 19.6793 69.5603 19.3764V17.7033C69.5603 17.4004 69.8059 17.1548 70.1088 17.1548H77.3222C77.6251 17.1548 77.8707 16.9092 77.8707 16.6062V6.62276C77.8707 6.31981 77.6251 6.07422 77.3222 6.07422H67.3387ZM69.5603 12.163C69.5603 11.8601 69.3147 11.6145 69.0118 11.6145H67.3387C67.0357 11.6145 66.7902 11.8601 66.7902 12.163V13.8361C66.7902 14.139 67.0357 14.3846 67.3387 14.3846H69.0118C69.3147 14.3846 69.5603 14.139 69.5603 13.8361V12.163Z" fill="white"/>
<path fill-rule="evenodd" clip-rule="evenodd" d="M125.284 6.07422C124.982 6.07422 124.736 6.31981 124.736 6.62276V8.29581C124.736 8.59877 124.49 8.84436 124.187 8.84436H122.514C122.211 8.84436 121.966 9.08995 121.966 9.3929V19.3764C121.966 19.6793 122.211 19.9249 122.514 19.9249H126.958C127.261 19.9249 127.506 19.6793 127.506 19.3764V17.7033C127.506 17.4004 127.752 17.1548 128.055 17.1548H135.268C135.571 17.1548 135.817 16.9092 135.817 16.6062V6.62276C135.817 6.31981 135.571 6.07422 135.268 6.07422H125.284ZM127.506 12.163C127.506 11.8601 127.261 11.6145 126.958 11.6145H125.284C124.982 11.6145 124.736 11.8601 124.736 12.163V13.8361C124.736 14.139 124.982 14.3846 125.285 14.3846H126.958C127.261 14.3846 127.506 14.139 127.506 13.8361V12.163Z" fill="white"/>
<path fill-rule="evenodd" clip-rule="evenodd" d="M183.23 6.07422C182.927 6.07422 182.682 6.31981 182.682 6.62276V8.29581C182.682 8.59877 182.436 8.84436 182.133 8.84436H180.46C180.157 8.84436 179.911 9.08995 179.911 9.3929V19.3764C179.911 19.6793 180.157 19.9249 180.46 19.9249H184.903C185.206 19.9249 185.452 19.6793 185.452 19.3764V17.7033C185.452 17.4004 185.697 17.1548 186 17.1548H193.214C193.516 17.1548 193.762 16.9092 193.762 16.6062V6.62276C193.762 6.31981 193.516 6.07422 193.214 6.07422H183.23ZM185.452 12.163C185.452 11.8601 185.206 11.6145 184.903 11.6145H183.23C182.927 11.6145 182.682 11.8601 182.682 12.163V13.8361C182.682 14.139 182.927 14.3846 183.23 14.3846H184.903C185.206 14.3846 185.452 14.139 185.452 13.8361V12.163Z" fill="white"/>
</svg>
