<svg width="76" height="76" viewBox="0 0 76 76" fill="none" xmlns="http://www.w3.org/2000/svg">
<path d="M35.4622 2.49607C36.1364 -0.488904 40.3896 -0.488901 41.0638 2.49608L44.3449 17.0215C44.7819 18.9561 47.0019 19.8757 48.6789 18.8167L61.27 10.8657C63.8574 9.23181 66.8649 12.2392 65.2309 14.8267L57.28 27.4178C56.221 29.0948 57.1406 31.3148 59.0752 31.7518L73.6006 35.0329C76.5856 35.7071 76.5856 39.9603 73.6006 40.6345L59.0752 43.9156C57.1406 44.3526 56.221 46.5726 57.28 48.2496L65.2309 60.8407C66.8649 63.4282 63.8574 66.4356 61.27 64.8017L48.6789 56.8507C47.0019 55.7917 44.7819 56.7113 44.3449 58.6459L41.0638 73.1713C40.3896 76.1563 36.1364 76.1563 35.4622 73.1713L32.1811 58.6459C31.7441 56.7113 29.5241 55.7917 27.8471 56.8507L15.256 64.8017C12.6685 66.4356 9.6611 63.4281 11.295 60.8407L19.246 48.2496C20.305 46.5726 19.3854 44.3526 17.4508 43.9156L2.92537 40.6345C-0.0596132 39.9603 -0.0596104 35.7071 2.92537 35.0329L17.4508 31.7518C19.3854 31.3148 20.3049 29.0948 19.246 27.4178L11.295 14.8267C9.6611 12.2392 12.6685 9.23182 15.256 10.8657L27.8471 18.8167C29.5241 19.8757 31.7441 18.9561 32.1811 17.0215L35.4622 2.49607Z" fill="#FF8A00"/>
</svg>
