<svg width="69" height="69" viewBox="0 0 69 69" fill="none" xmlns="http://www.w3.org/2000/svg">
<path d="M34.1685 12.1477H34.8314C46.2605 12.1477 55.5256 21.4128 55.5256 32.8419V37.6264H13.4742V32.8419C13.4742 21.4128 22.7394 12.1477 34.1685 12.1477Z" fill="#0C6DFF" stroke="#0F0F0F" stroke-width="1.03759"/>
<mask id="path-2-outside-1_688_10109" maskUnits="userSpaceOnUse" x="22.562" y="19.5781" width="24" height="18" fill="black">
<rect fill="white" x="22.562" y="19.5781" width="24" height="18"/>
<path fill-rule="evenodd" clip-rule="evenodd" d="M29.6336 20.5781C27.9029 20.5781 26.4999 21.9812 26.4999 23.7119V24.4952H24.0712C23.79 24.4952 23.562 24.7232 23.562 25.0044C23.562 26.1294 24.474 27.0414 25.5989 27.0414H26.4999L26.4999 34.68C26.4999 35.5453 27.2014 36.2468 28.0668 36.2468H40.6017C41.4671 36.2468 42.1686 35.5453 42.1686 34.68V27.0414H43.0696C44.1945 27.0414 45.1065 26.1294 45.1065 25.0044C45.1065 24.7232 44.8785 24.4952 44.5973 24.4952H42.1686V23.7119C42.1686 21.9811 40.7656 20.5781 39.0349 20.5781H29.6336Z"/>
</mask>
<path fill-rule="evenodd" clip-rule="evenodd" d="M29.6336 20.5781C27.9029 20.5781 26.4999 21.9812 26.4999 23.7119V24.4952H24.0712C23.79 24.4952 23.562 24.7232 23.562 25.0044C23.562 26.1294 24.474 27.0414 25.5989 27.0414H26.4999L26.4999 34.68C26.4999 35.5453 27.2014 36.2468 28.0668 36.2468H40.6017C41.4671 36.2468 42.1686 35.5453 42.1686 34.68V27.0414H43.0696C44.1945 27.0414 45.1065 26.1294 45.1065 25.0044C45.1065 24.7232 44.8785 24.4952 44.5973 24.4952H42.1686V23.7119C42.1686 21.9811 40.7656 20.5781 39.0349 20.5781H29.6336Z" fill="white"/>
<path d="M26.4999 24.4952V25.2786H27.2833V24.4952H26.4999ZM26.4999 27.0414L27.2833 27.0414L27.2833 26.2579H26.4999V27.0414ZM26.4999 34.68L25.7165 34.68V34.68H26.4999ZM42.1686 27.0414V26.2579H41.3852V27.0414H42.1686ZM42.1686 24.4952H41.3852V25.2786H42.1686V24.4952ZM27.2833 23.7119C27.2833 22.4138 28.3356 21.3616 29.6336 21.3616V19.7947C27.4702 19.7947 25.7165 21.5485 25.7165 23.7119H27.2833ZM27.2833 24.4952V23.7119H25.7165V24.4952H27.2833ZM24.0712 25.2786H26.4999V23.7118H24.0712V25.2786ZM24.3454 25.0044C24.3454 25.1559 24.2227 25.2786 24.0712 25.2786V23.7118C23.3573 23.7118 22.7786 24.2905 22.7786 25.0044H24.3454ZM25.5989 26.2579C24.9067 26.2579 24.3454 25.6967 24.3454 25.0044H22.7786C22.7786 26.5621 24.0413 27.8248 25.5989 27.8248V26.2579ZM26.4999 26.2579H25.5989V27.8248H26.4999V26.2579ZM27.2833 34.68L27.2833 27.0414L25.7165 27.0414L25.7165 34.68L27.2833 34.68ZM28.0668 35.4634C27.6341 35.4634 27.2833 35.1126 27.2833 34.68H25.7165C25.7165 35.978 26.7687 37.0303 28.0668 37.0303V35.4634ZM40.6017 35.4634H28.0668V37.0303H40.6017V35.4634ZM41.3852 34.68C41.3852 35.1126 41.0344 35.4634 40.6017 35.4634V37.0303C41.8998 37.0303 42.952 35.978 42.952 34.68H41.3852ZM41.3852 27.0414V34.68H42.952V27.0414H41.3852ZM42.1686 27.8248H43.0696V26.2579H42.1686V27.8248ZM43.0696 27.8248C44.6272 27.8248 45.8899 26.5621 45.8899 25.0044H44.3231C44.3231 25.6967 43.7618 26.2579 43.0696 26.2579V27.8248ZM45.8899 25.0044C45.8899 24.2905 45.3112 23.7118 44.5973 23.7118V25.2786C44.4458 25.2786 44.3231 25.1559 44.3231 25.0044H45.8899ZM44.5973 23.7118H42.1686V25.2786H44.5973V23.7118ZM41.3852 23.7119V24.4952H42.952V23.7119H41.3852ZM39.0349 21.3616C40.3329 21.3616 41.3852 22.4138 41.3852 23.7119H42.952C42.952 21.5485 41.1983 19.7947 39.0349 19.7947V21.3616ZM29.6336 21.3616H39.0349V19.7947H29.6336V21.3616Z" fill="#0F0F0F" mask="url(#path-2-outside-1_688_10109)"/>
<path d="M26.4999 23.7119C26.4999 21.9812 27.9029 20.5781 29.6336 20.5781H39.0348C40.7656 20.5781 42.1686 21.9811 42.1686 23.7119V34.68C42.1686 35.5453 41.4671 36.2468 40.6017 36.2468H28.0668C27.2014 36.2468 26.4999 35.5453 26.4999 34.68V23.7119Z" fill="#FF4392"/>
<path d="M30.4171 24.4951H38.0556V24.7889C38.0556 26.8982 36.3457 28.6082 34.2364 28.6082V28.6082C32.1271 28.6082 30.4171 26.8982 30.4171 24.7889V24.4951Z" fill="white"/>
<path d="M31.7881 24.4951H36.6846V24.593C36.6846 25.9452 35.5884 27.0413 34.2363 27.0413V27.0413C32.8842 27.0413 31.7881 25.9452 31.7881 24.593V24.4951Z" fill="#0F0F0F"/>
<path d="M32.4218 30.7137L30.1889 31.0049C29.7032 31.0683 29.3399 31.4821 29.3399 31.9719C29.3399 32.5606 29.8575 33.015 30.4412 32.9389L32.824 32.6281C33.8266 32.4973 34.8419 32.4973 35.8445 32.6281L38.2274 32.9389C38.8111 33.015 39.3287 32.5606 39.3287 31.9719C39.3287 31.4821 38.9653 31.0683 38.4796 31.0049L36.2468 30.7137C34.9772 30.5481 33.6914 30.5481 32.4218 30.7137Z" fill="#0F0F0F" stroke="#0C6DFF" stroke-width="0.979295"/>
<path d="M23.562 25.0044C23.562 24.7231 23.79 24.4951 24.0712 24.4951H26.4999V27.0413H25.5989C24.474 27.0413 23.562 26.1293 23.562 25.0044V25.0044Z" fill="white"/>
<path d="M45.1065 25.0044C45.1065 24.7231 44.8785 24.4951 44.5973 24.4951H42.1686V27.0413H43.0696C44.1945 27.0413 45.1065 26.1293 45.1065 25.0044V25.0044Z" fill="white"/>
<rect x="19.109" y="53.2483" width="30.782" height="3.60276" rx="1.80138" fill="#FF4392" stroke="#0F0F0F" stroke-width="1.03759"/>
<path d="M17.5958 35.0178H51.4041C58.2568 35.0178 63.812 40.573 63.812 47.4257V48.4201C63.812 49.598 62.8571 50.5529 61.6791 50.5529H7.32076C6.14283 50.5529 5.18793 49.598 5.18793 48.4201V47.4257C5.18793 40.573 10.7431 35.0178 17.5958 35.0178Z" fill="#FF8A00" stroke="#0F0F0F" stroke-width="1.03759"/>
</svg>
