<svg width="14" height="15" viewBox="0 0 14 15" fill="none" xmlns="http://www.w3.org/2000/svg">
<path fill-rule="evenodd" clip-rule="evenodd" d="M7.04132 14.256C10.8097 14.256 13.8646 11.2011 13.8646 7.43268C13.8646 3.66427 10.8097 0.609375 7.04132 0.609375C3.27292 0.609375 0.218018 3.66427 0.218018 7.43268C0.218018 11.2011 3.27292 14.256 7.04132 14.256ZM8.38785 5.90245L7.33293 3.05156C7.23276 2.78086 6.84989 2.78086 6.74972 3.05156L5.6948 5.90245C5.6633 5.98756 5.5962 6.05466 5.51109 6.08615L2.6602 7.14108C2.3895 7.24125 2.3895 7.62412 2.6602 7.72429L5.51109 8.77921C5.5962 8.8107 5.6633 8.87781 5.6948 8.96291L6.74972 11.8138C6.84989 12.0845 7.23276 12.0845 7.33293 11.8138L8.38785 8.96291C8.41935 8.87781 8.48645 8.8107 8.57156 8.77921L11.4224 7.72429C11.6931 7.62412 11.6931 7.24125 11.4224 7.14108L8.57156 6.08615C8.48645 6.05466 8.41935 5.98756 8.38785 5.90245Z" fill="white"/>
</svg>
