<?xml version="1.0" encoding="UTF-8"?>
<svg preserveAspectRatio="xMidYMid slice" xmlns="http://www.w3.org/2000/svg" width="34px" height="31px" viewBox="0 0 1031 962" fill="none">
  <mask id="path-1-outside-1_661_13165" maskUnits="userSpaceOnUse" x="0" y="0" width="1031" height="962" fill="black">
    <rect fill="white" width="1031" height="962"></rect>
    <path fill-rule="evenodd" clip-rule="evenodd" d="M415.77 58.9389L520.65 206.119V206.129C523.76 210.229 529.83 206.129 527.35 201.759C527.207 201.55 514.697 180.562 498.893 154.046L498.854 153.981L498.846 153.968L498.832 153.944C471.549 108.171 434.494 46.003 434.26 45.7689C430.62 40.6589 423.54 39.4689 418.43 43.1089C413.32 46.7489 412.13 53.8389 415.77 58.9389ZM504 221.749H791V357.729H860.88C895.64 357.729 928.31 371.259 952.89 395.839C977.47 420.419 991 453.089 991 487.849V791.619C991 826.379 977.47 859.049 952.89 883.629C928.31 908.209 895.64 921.739 860.88 921.739H40V487.859C40 453.099 53.53 420.419 78.11 395.859C102.69 371.279 135.36 357.749 170.12 357.749H504V221.749ZM490.38 227.389L350.67 112.739C345.82 108.759 345.12 101.609 349.1 96.7687C353.08 91.9187 360.23 91.2187 365.07 95.1987C365.344 95.3568 413.352 141.797 451.083 178.296L451.14 178.351L451.17 178.381C475.475 201.892 495.493 221.256 495.7 221.429C499.24 224.969 494.42 230.559 490.38 227.399V227.389Z"></path>
  </mask>
  <path fill-rule="evenodd" clip-rule="evenodd" d="M415.77 58.9389L520.65 206.119V206.129C523.76 210.229 529.83 206.129 527.35 201.759C527.207 201.55 514.697 180.562 498.893 154.046L498.854 153.981L498.846 153.968L498.832 153.944C471.549 108.171 434.494 46.003 434.26 45.7689C430.62 40.6589 423.54 39.4689 418.43 43.1089C413.32 46.7489 412.13 53.8389 415.77 58.9389ZM504 221.749H791V357.729H860.88C895.64 357.729 928.31 371.259 952.89 395.839C977.47 420.419 991 453.089 991 487.849V791.619C991 826.379 977.47 859.049 952.89 883.629C928.31 908.209 895.64 921.739 860.88 921.739H40V487.859C40 453.099 53.53 420.419 78.11 395.859C102.69 371.279 135.36 357.749 170.12 357.749H504V221.749ZM490.38 227.389L350.67 112.739C345.82 108.759 345.12 101.609 349.1 96.7687C353.08 91.9187 360.23 91.2187 365.07 95.1987C365.344 95.3568 413.352 141.797 451.083 178.296L451.14 178.351L451.17 178.381C475.475 201.892 495.493 221.256 495.7 221.429C499.24 224.969 494.42 230.559 490.38 227.399V227.389Z" fill="black"></path>
  <path d="M520.65 206.119H560.65V193.325L553.225 182.906L520.65 206.119ZM415.77 58.9389L448.345 35.7258L448.337 35.7136L448.328 35.7015L415.77 58.9389ZM520.65 206.129H480.65V219.583L488.781 230.303L520.65 206.129ZM527.35 201.759L562.138 182.016L561.31 180.556L560.362 179.171L527.35 201.759ZM498.893 154.046L533.252 133.567L533.246 133.557L498.893 154.046ZM498.854 153.981L464.478 174.434L464.489 174.452L464.5 174.471L498.854 153.981ZM498.846 153.968L533.222 133.515L533.212 133.499L533.202 133.482L498.846 153.968ZM498.832 153.944L464.472 174.423L464.475 174.429L498.832 153.944ZM434.26 45.7689L401.68 68.9761L403.616 71.694L405.976 74.0535L434.26 45.7689ZM418.43 43.1089L395.223 10.5294L395.223 10.5294L418.43 43.1089ZM791 221.749H831V181.749H791V221.749ZM504 221.749V181.749H464V221.749H504ZM791 357.729H751V397.729H791V357.729ZM952.89 395.839L924.606 424.123L952.89 395.839ZM952.89 883.629L924.606 855.344L924.606 855.344L952.89 883.629ZM40 921.739H0V961.739H40V921.739ZM78.11 395.859L106.383 424.154L106.389 424.149L106.394 424.143L78.11 395.859ZM504 357.749V397.749H544V357.749H504ZM350.67 112.739L376.045 81.8176L376.045 81.8174L350.67 112.739ZM490.38 227.389H530.38V208.469L515.755 196.468L490.38 227.389ZM349.1 96.7687L379.996 122.175L380.009 122.159L380.022 122.143L349.1 96.7687ZM365.07 95.1987L339.664 126.094L342.208 128.186L345.059 129.833L365.07 95.1987ZM451.083 178.296L423.272 207.046L423.276 207.05L451.083 178.296ZM451.14 178.351L478.97 149.62L478.958 149.609L478.946 149.597L451.14 178.351ZM451.17 178.381L423.34 207.112L423.35 207.121L423.359 207.131L451.17 178.381ZM495.7 221.429L523.985 193.144L522.675 191.835L521.25 190.652L495.7 221.429ZM490.38 227.399H450.38V246.894L465.736 258.906L490.38 227.399ZM553.225 182.906L448.345 35.7258L383.195 82.152L488.075 229.332L553.225 182.906ZM560.65 206.129V206.119H480.65V206.129H560.65ZM492.562 221.501C481.829 202.589 490.91 182.46 503.987 173.786C510.341 169.571 518.905 166.893 528.438 168.114C538.694 169.427 547.168 174.901 552.519 181.955L488.781 230.303C504.855 251.493 531.555 251.498 548.206 240.454C564.475 229.663 575.351 205.299 562.138 182.016L492.562 221.501ZM464.533 174.526C472.435 187.783 479.516 199.662 484.639 208.254C488.94 215.467 493.327 222.87 494.338 224.347L560.362 179.171C561.221 180.426 562.134 181.986 561.451 180.851C561.372 180.72 561.242 180.503 561.053 180.187C560.679 179.563 560.127 178.64 559.409 177.437C557.976 175.037 555.91 171.574 553.35 167.281C548.232 158.698 541.155 146.826 533.252 133.567L464.533 174.526ZM464.5 174.471L464.539 174.536L533.246 133.557L533.207 133.491L464.5 174.471ZM464.471 174.421L464.478 174.434L533.229 133.528L533.222 133.515L464.471 174.421ZM464.475 174.429L464.49 174.454L533.202 133.482L533.188 133.458L464.475 174.429ZM405.976 74.0535C404.949 72.9875 403.443 71.2696 402.937 70.6454C402.626 70.2488 402.114 69.5719 401.91 69.2949C401.515 68.7505 401.22 68.315 401.1 68.1378C400.835 67.7446 400.64 67.4384 400.586 67.3551C400.506 67.2284 400.446 67.1332 400.42 67.0911C400.389 67.0429 400.369 67.0106 400.363 67.0002C400.353 66.9844 400.398 67.0567 400.529 67.2721C400.774 67.676 401.161 68.3189 401.699 69.2129C402.764 70.9858 404.319 73.5817 406.283 76.8642C410.204 83.4211 415.701 92.6292 422.052 103.273C434.75 124.558 450.83 151.535 464.472 174.423L533.191 133.464C519.551 110.58 503.462 83.5867 490.754 62.2854C484.401 51.6366 478.885 42.3979 474.94 35.8021C472.97 32.5083 471.379 29.8513 470.267 28.0008C469.715 27.0831 469.256 26.3216 468.919 25.7668C468.759 25.5028 468.579 25.2072 468.414 24.9395C468.344 24.8266 468.191 24.5797 468.009 24.2947C467.934 24.1778 467.722 23.8454 467.444 23.4335C467.319 23.2469 467.018 22.804 466.619 22.254C466.413 21.9742 465.899 21.295 465.587 20.8965C465.079 20.2705 463.572 18.5512 462.544 17.4843L405.976 74.0535ZM441.637 75.6884C428.751 84.8674 410.856 81.8565 401.68 68.9761L466.84 22.5616C450.385 -0.538731 418.329 -5.92963 395.223 10.5294L441.637 75.6884ZM448.328 35.7015C457.549 48.6215 454.505 66.5221 441.637 75.6883L395.223 10.5294C372.135 26.9756 366.711 59.0563 383.212 82.1763L448.328 35.7015ZM791 181.749H504V261.749H791V181.749ZM831 357.729V221.749H751V357.729H831ZM860.88 317.729H791V397.729H860.88V317.729ZM981.174 367.555C949.092 335.472 906.247 317.729 860.88 317.729V397.729C885.033 397.729 907.528 407.046 924.606 424.123L981.174 367.555ZM1031 487.849C1031 442.482 1013.26 399.637 981.174 367.554L924.606 424.123C941.683 441.2 951 463.696 951 487.849H1031ZM1031 791.619V487.849H951V791.619H1031ZM981.174 911.913C1013.26 879.83 1031 836.986 1031 791.619H951C951 815.772 941.683 838.267 924.606 855.344L981.174 911.913ZM860.88 961.739C906.247 961.739 949.092 943.996 981.174 911.913L924.606 855.344C907.528 872.422 885.033 881.739 860.88 881.739V961.739ZM40 961.739H860.88V881.739H40V961.739ZM0 487.859V921.739H80V487.859H0ZM49.8372 367.563C17.7393 399.635 0 442.498 0 487.859H80C80 463.7 89.3207 441.203 106.383 424.154L49.8372 367.563ZM170.12 317.749C124.753 317.749 81.9084 335.492 49.8257 367.574L106.394 424.143C123.472 407.066 145.967 397.749 170.12 397.749V317.749ZM504 317.749H170.12V397.749H504V317.749ZM464 221.749V357.749H544V221.749H464ZM325.296 143.66L465.006 258.31L515.755 196.468L376.045 81.8176L325.296 143.66ZM318.205 71.3629C300.176 93.2878 303.366 125.664 325.296 143.66L376.045 81.8174C388.275 91.8536 390.065 109.93 379.996 122.175L318.205 71.3629ZM390.476 64.3031C368.551 46.2738 336.175 49.4642 318.179 71.3941L380.022 122.143C369.986 134.373 351.909 136.164 339.664 126.094L390.476 64.3031ZM478.894 149.546C460.03 131.299 438.589 110.557 421.829 94.3584C413.451 86.2603 406.232 79.2873 401.087 74.325C398.518 71.8471 396.446 69.8523 395 68.4641C394.284 67.7762 393.685 67.2025 393.244 66.7827C393.035 66.5838 392.794 66.3551 392.57 66.1456C392.476 66.0577 392.265 65.8601 392.013 65.6318C391.91 65.5379 391.616 65.2714 391.238 64.9447C391.066 64.7959 390.661 64.4477 390.131 64.0224C389.862 63.8075 389.194 63.2916 388.793 62.9925C388.153 62.5306 386.306 61.3014 385.081 60.5641L345.059 129.833C343.835 129.097 341.99 127.868 341.352 127.408C340.953 127.11 340.287 126.596 340.02 126.383C339.496 125.962 339.097 125.619 338.933 125.477C338.571 125.164 338.299 124.917 338.222 124.848C338.108 124.744 338.023 124.666 337.984 124.629C337.94 124.589 337.91 124.56 337.898 124.549C337.874 124.527 337.923 124.572 338.09 124.731C338.401 125.027 338.898 125.503 339.594 126.171C340.973 127.496 342.992 129.44 345.552 131.908C350.664 136.839 357.856 143.786 366.231 151.881C382.976 168.066 404.404 188.794 423.272 207.046L478.894 149.546ZM478.946 149.597L478.889 149.542L423.276 207.05L423.333 207.105L478.946 149.597ZM479.001 149.65L478.97 149.62L423.309 207.082L423.34 207.112L479.001 149.65ZM521.25 190.652C521.769 191.083 522.162 191.432 522.279 191.536C522.451 191.689 522.587 191.812 522.662 191.882C522.815 192.021 522.931 192.129 522.976 192.171C523.077 192.265 523.147 192.332 523.153 192.337C523.178 192.362 523.169 192.353 523.101 192.288C522.977 192.169 522.77 191.97 522.469 191.68C521.875 191.108 520.997 190.262 519.858 189.161C517.582 186.964 514.309 183.801 510.276 179.901C502.212 172.103 491.135 161.388 478.981 149.631L423.359 207.131C435.51 218.885 446.594 229.607 454.667 237.413C458.702 241.315 461.992 244.494 464.288 246.711C465.434 247.817 466.344 248.695 466.979 249.307C467.293 249.61 467.562 249.868 467.765 250.062C467.861 250.154 467.979 250.267 468.094 250.376C468.144 250.424 468.25 250.524 468.376 250.642C468.434 250.696 468.561 250.814 468.721 250.961C468.801 251.034 468.94 251.16 469.115 251.316C469.235 251.422 469.63 251.773 470.151 252.206L521.25 190.652ZM465.736 258.906C474.85 266.034 486.702 269.626 498.957 267.911C510.446 266.303 519.714 260.417 525.954 253.303C538.63 238.852 543.189 212.349 523.985 193.144L467.416 249.713C451.752 234.049 455.671 212.111 465.812 200.549C470.784 194.88 478.311 190.021 487.87 188.683C498.196 187.238 507.931 190.344 515.024 195.892L465.736 258.906ZM450.38 227.389V227.399H530.38V227.389H450.38Z" fill="white" mask="url(#path-1-outside-1_661_13165)"></path>
  <path d="M50 910.749V486.869C50 420.639 103.89 366.749 170.12 366.749H532V364.749H514V230.749H781V364.749H763V366.749H860.88C927.11 366.749 981 420.629 981 486.869V790.639C981 856.869 927.12 910.759 860.88 910.759H50V910.749ZM698 366.749V364.749H597V366.749H698Z" fill="black"></path>
  <path d="M771 240.749V354.749H753V376.749H860.88C921.7 376.749 971 426.049 971 486.869V790.639C971 851.459 921.7 900.759 860.88 900.759H60V486.879C60 426.059 109.3 376.759 170.12 376.759H542V354.759H524V240.759H771M587 376.759H708V354.759H587V376.759ZM791 220.759H504V356.759H170.12C135.36 356.759 102.69 370.289 78.1099 394.869C53.5299 419.449 40 452.119 40 486.879V920.759H860.88C895.64 920.759 928.31 907.229 952.89 882.649C977.47 858.069 991 825.399 991 790.639V486.869C991 452.109 977.47 419.439 952.89 394.859C928.31 370.279 895.64 356.749 860.88 356.749H791V220.749V220.759Z" fill="black"></path>
  <path d="M329 896.749V380.749H860.88C919.39 380.749 967 428.349 967 486.869V790.639C967 849.149 919.4 896.759 860.88 896.759H329V896.749Z" fill="#339999"></path>
  <path d="M860.89 384.749C917.2 384.749 963.01 430.559 963.01 486.869V790.639C963.01 846.949 917.2 892.759 860.89 892.759H333.01V384.759H860.89M860.89 376.759H325.01V900.759H860.89C921.71 900.759 971.01 851.459 971.01 790.639V486.869C971.01 426.049 921.71 376.749 860.89 376.749V376.759Z" fill="black"></path>
  <path d="M447 653.749V900.749H60V486.869C60 426.049 109.3 376.749 170.12 376.749H331.51V457.589C331.51 494.819 351.8 528.999 384.32 547.119C394.24 552.649 403.3 559.519 411.27 567.479C433.34 589.559 447 620.059 447 653.749Z" fill="black"></path>
  <path d="M520.65 205.129L415.77 57.9389C412.13 52.8389 413.32 45.7489 418.43 42.1089C423.53 38.4689 430.62 39.6589 434.26 44.7689C434.63 45.1389 526.96 200.189 527.35 200.759C529.83 205.129 523.76 209.229 520.65 205.129Z" fill="black"></path>
  <path d="M490.39 226.399L350.68 111.749C345.83 107.769 345.13 100.619 349.11 95.7787C353.09 90.9287 360.24 90.2287 365.08 94.2087C365.53 94.4687 495.18 219.999 495.71 220.439C499.25 223.979 494.43 229.569 490.39 226.409V226.399Z" fill="black"></path>
  <path d="M611.5 704.749C589.17 704.749 571 686.579 571 664.249V569.249C571 546.919 589.17 528.749 611.5 528.749C633.83 528.749 652 546.919 652 569.249V664.249C652 686.579 633.83 704.749 611.5 704.749Z" fill="#F26739"></path>
  <path d="M611.5 532.749C631.66 532.749 648 549.089 648 569.249V664.249C648 684.409 631.66 700.749 611.5 700.749C591.34 700.749 575 684.409 575 664.249V569.249C575 549.089 591.34 532.749 611.5 532.749ZM611.5 524.749C586.96 524.749 567 544.709 567 569.249V664.249C567 688.789 586.96 708.749 611.5 708.749C636.04 708.749 656 688.789 656 664.249V569.249C656 544.709 636.04 524.749 611.5 524.749Z" fill="black"></path>
  <path d="M629 667.249V566.249C629 556.589 621.16 548.749 611.5 548.749C601.84 548.749 594 556.589 594 566.249V667.249C594 674.619 598.56 680.909 605 683.489V855.009C598.56 857.589 594 863.879 594 871.249C594 880.919 601.84 888.749 611.5 888.749C621.16 888.749 629 880.909 629 871.249C629 863.879 624.44 857.589 618 855.009V683.489C624.44 680.909 629 674.619 629 667.249Z" fill="#231F20"></path>
  <path d="M733 430.249C733 423.345 727.404 417.749 720.5 417.749C713.596 417.749 708 423.345 708 430.249V511.249C708 518.152 713.596 523.749 720.5 523.749C727.404 523.749 733 518.152 733 511.249V430.249Z" fill="black"></path>
  <path d="M701 425.249C701 421.107 697.642 417.749 693.5 417.749C689.358 417.749 686 421.107 686 425.249V516.249C686 520.391 689.358 523.749 693.5 523.749C697.642 523.749 701 520.391 701 516.249V425.249Z" fill="black"></path>
  <path d="M733 749.249C733 742.345 727.404 736.749 720.5 736.749C713.596 736.749 708 742.345 708 749.249V830.249C708 837.153 713.596 842.749 720.5 842.749C727.404 842.749 733 837.153 733 830.249V749.249Z" fill="black"></path>
  <path d="M701 744.249C701 740.107 697.642 736.749 693.5 736.749C689.358 736.749 686 740.107 686 744.249V835.249C686 839.391 689.358 842.749 693.5 842.749C697.642 842.749 701 839.391 701 835.249V744.249Z" fill="black"></path>
  <path d="M823 380.749H767V896.749H823V380.749Z" fill="#363795"></path>
  <path d="M819 384.749V892.749H771V384.749H819ZM827 376.749H763V900.749H827V376.749Z" fill="black"></path>
  <path d="M798.06 861.749C782.27 861.749 767.18 855.869 755.56 845.179C743.94 834.489 736.81 819.949 735.49 804.219L727.24 706.039C723.1 656.749 723.1 606.759 727.24 557.459L735.49 459.279C736.81 443.549 743.94 428.999 755.56 418.319C767.18 407.639 782.27 401.749 798.06 401.749C815.58 401.749 832.43 409.149 844.28 422.039C856.13 434.929 862.1 452.339 860.63 469.799L853.2 558.129C849.09 606.979 849.09 656.519 853.2 705.369L860.63 793.699C862.1 811.159 856.14 828.569 844.28 841.459C832.42 854.349 815.57 861.749 798.06 861.749Z" fill="#F26739"></path>
  <path d="M798.06 405.749C832.47 405.749 859.53 435.179 856.65 469.469L849.22 557.799C845.08 607.019 845.08 656.489 849.22 705.709L856.65 794.039C859.53 828.329 832.48 857.759 798.06 857.759C767.5 857.759 742.03 834.349 739.47 803.889L731.22 705.709C727.08 656.489 727.08 607.019 731.22 557.799L739.47 459.619C742.03 429.169 767.5 405.749 798.06 405.749ZM798.06 397.749C781.27 397.749 765.21 404.009 752.85 415.369C740.49 426.739 732.91 442.209 731.5 458.939L723.25 557.119C719.09 606.639 719.09 656.849 723.25 706.369L731.5 804.549C732.91 821.279 740.49 836.759 752.85 848.119C765.21 859.489 781.27 865.739 798.06 865.739C816.69 865.739 834.62 857.869 847.23 844.159C859.84 830.449 866.18 811.929 864.62 793.359L857.19 705.029C853.1 656.399 853.1 607.089 857.19 558.459L864.62 470.129C866.18 451.559 859.84 433.039 847.23 419.329C834.62 405.619 816.7 397.749 798.06 397.749Z" fill="black"></path>
  <mask id="mask0_661_13165" style="mask-type:luminance" maskUnits="userSpaceOnUse" x="724" y="401" width="137" height="461">
    <path d="M798.06 861.749C782.27 861.749 767.18 855.869 755.56 845.179C743.94 834.499 736.81 819.949 735.49 804.219L727.24 706.039C723.1 656.749 723.1 606.759 727.24 557.459L735.49 459.279C736.81 443.549 743.94 428.999 755.56 418.319C767.18 407.639 782.27 401.749 798.06 401.749C815.58 401.749 832.43 409.149 844.28 422.039C856.14 434.939 862.1 452.339 860.63 469.799L853.2 558.129C849.09 606.979 849.09 656.519 853.2 705.369L860.63 793.699C862.1 811.159 856.14 828.569 844.28 841.459C832.42 854.359 815.57 861.749 798.06 861.749Z" fill="white"></path>
  </mask>
  <g mask="url(#mask0_661_13165)">
    <mask id="mask1_661_13165" style="mask-type:luminance" maskUnits="userSpaceOnUse" x="776" y="355" width="208" height="186">
      <path d="M983.66 355.459H776.2V540.649H983.66V355.459Z" fill="white"></path>
    </mask>
    <g mask="url(#mask1_661_13165)">
      <path d="M781.19 437.349C781.19 437.349 785.19 459.349 802.19 459.349C819.19 459.349 825.75 435.789 825.75 435.789" stroke="black" stroke-width="8" stroke-miterlimit="10" stroke-linecap="round"></path>
      <path d="M794.401 416.479L791.971 427.759" stroke="black" stroke-width="8" stroke-miterlimit="10" stroke-linecap="round"></path>
      <path d="M807.771 418.889L812.61 429.359" stroke="black" stroke-width="8" stroke-miterlimit="10" stroke-linecap="round"></path>
      <path d="M860.441 413.729C860.441 413.729 860.181 423.249 867.271 424.739C874.361 426.229 879.151 416.979 879.151 416.979" stroke="black" stroke-width="3" stroke-miterlimit="10" stroke-linecap="round"></path>
      <path d="M853.441 508.729C853.441 508.729 853.181 518.249 860.271 519.739C867.361 521.229 872.151 511.979 872.151 511.979" stroke="black" stroke-width="3" stroke-miterlimit="10" stroke-linecap="round"></path>
      <path d="M861.711 504.959L859.711 509.449" stroke="black" stroke-width="3" stroke-miterlimit="10" stroke-linecap="round"></path>
      <path d="M778.211 522.419C778.211 522.419 777.841 536.259 788.141 538.419C798.441 540.579 805.411 527.139 805.411 527.139" stroke="black" stroke-width="4" stroke-miterlimit="10" stroke-linecap="round"></path>
      <path d="M790.221 516.939L787.311 523.469" stroke="black" stroke-width="4" stroke-miterlimit="10" stroke-linecap="round"></path>
      <path d="M796.66 514.609L798.26 521.569" stroke="black" stroke-width="4" stroke-miterlimit="10" stroke-linecap="round"></path>
      <path d="M821.211 464.419C821.211 464.419 820.841 478.259 831.141 480.419C841.441 482.579 848.411 469.139 848.411 469.139" stroke="black" stroke-width="4" stroke-miterlimit="10" stroke-linecap="round"></path>
      <path d="M833.221 458.939L830.311 465.469" stroke="black" stroke-width="4" stroke-miterlimit="10" stroke-linecap="round"></path>
      <path d="M839.66 456.609L841.26 463.569" stroke="black" stroke-width="4" stroke-miterlimit="10" stroke-linecap="round"></path>
    </g>
    <mask id="mask2_661_13165" style="mask-type:luminance" maskUnits="userSpaceOnUse" x="776" y="540" width="208" height="186">
      <path d="M983.66 540.649H776.2V725.839H983.66V540.649Z" fill="white"></path>
    </mask>
    <g mask="url(#mask2_661_13165)">
      <path d="M781.19 622.539C781.19 622.539 785.19 644.539 802.19 644.539C819.19 644.539 825.75 620.979 825.75 620.979" stroke="black" stroke-width="8" stroke-miterlimit="10" stroke-linecap="round"></path>
      <path d="M794.401 601.669L791.971 612.949" stroke="black" stroke-width="8" stroke-miterlimit="10" stroke-linecap="round"></path>
      <path d="M807.771 604.079L812.61 614.549" stroke="black" stroke-width="8" stroke-miterlimit="10" stroke-linecap="round"></path>
      <path d="M823.211 563.609C823.211 563.609 822.841 577.449 833.141 579.609C843.441 581.769 850.411 568.329 850.411 568.329" stroke="black" stroke-width="4" stroke-miterlimit="10" stroke-linecap="round"></path>
      <path d="M835.221 558.129L832.311 564.659" stroke="black" stroke-width="4" stroke-miterlimit="10" stroke-linecap="round"></path>
      <path d="M841.66 555.799L843.26 562.759" stroke="black" stroke-width="4" stroke-miterlimit="10" stroke-linecap="round"></path>
      <path d="M860.441 598.919C860.441 598.919 860.181 608.439 867.271 609.929C874.361 611.419 879.151 602.169 879.151 602.169" stroke="black" stroke-width="3" stroke-miterlimit="10" stroke-linecap="round"></path>
      <path d="M853.441 693.918C853.441 693.918 853.181 703.438 860.271 704.928C867.361 706.418 872.151 697.168 872.151 697.168" stroke="black" stroke-width="3" stroke-miterlimit="10" stroke-linecap="round"></path>
      <path d="M861.711 690.148L859.711 694.638" stroke="black" stroke-width="3" stroke-miterlimit="10" stroke-linecap="round"></path>
      <path d="M778.211 707.608C778.211 707.608 777.841 721.448 788.141 723.608C798.441 725.768 805.411 712.328 805.411 712.328" stroke="black" stroke-width="4" stroke-miterlimit="10" stroke-linecap="round"></path>
      <path d="M790.221 702.129L787.311 708.659" stroke="black" stroke-width="4" stroke-miterlimit="10" stroke-linecap="round"></path>
      <path d="M796.66 699.799L798.26 706.759" stroke="black" stroke-width="4" stroke-miterlimit="10" stroke-linecap="round"></path>
      <path d="M821.211 649.609C821.211 649.609 820.841 663.449 831.141 665.609C841.441 667.769 848.411 654.329 848.411 654.329" stroke="black" stroke-width="4" stroke-miterlimit="10" stroke-linecap="round"></path>
      <path d="M833.221 644.129L830.311 650.659" stroke="black" stroke-width="4" stroke-miterlimit="10" stroke-linecap="round"></path>
      <path d="M839.66 641.799L841.26 648.759" stroke="black" stroke-width="4" stroke-miterlimit="10" stroke-linecap="round"></path>
    </g>
    <mask id="mask3_661_13165" style="mask-type:luminance" maskUnits="userSpaceOnUse" x="776" y="725" width="208" height="187">
      <path d="M983.66 725.839H776.2V911.029H983.66V725.839Z" fill="white"></path>
    </mask>
    <g mask="url(#mask3_661_13165)">
      <path d="M781.19 807.729C781.19 807.729 785.19 829.729 802.19 829.729C819.19 829.729 825.75 806.169 825.75 806.169" stroke="black" stroke-width="8" stroke-miterlimit="10" stroke-linecap="round"></path>
      <path d="M794.401 786.859L791.971 798.139" stroke="black" stroke-width="8" stroke-miterlimit="10" stroke-linecap="round"></path>
      <path d="M807.771 789.269L812.61 799.739" stroke="black" stroke-width="8" stroke-miterlimit="10" stroke-linecap="round"></path>
      <path d="M823.211 748.799C823.211 748.799 822.841 762.639 833.141 764.799C843.441 766.959 850.411 753.519 850.411 753.519" stroke="black" stroke-width="4" stroke-miterlimit="10" stroke-linecap="round"></path>
      <path d="M835.221 743.319L832.311 749.849" stroke="black" stroke-width="4" stroke-miterlimit="10" stroke-linecap="round"></path>
      <path d="M841.66 740.989L843.26 747.949" stroke="black" stroke-width="4" stroke-miterlimit="10" stroke-linecap="round"></path>
      <path d="M860.441 784.109C860.441 784.109 860.181 793.629 867.271 795.119C874.361 796.609 879.151 787.359 879.151 787.359" stroke="black" stroke-width="3" stroke-miterlimit="10" stroke-linecap="round"></path>
      <path d="M821.211 834.799C821.211 834.799 820.841 848.639 831.141 850.799C841.441 852.959 848.411 839.519 848.411 839.519" stroke="black" stroke-width="4" stroke-miterlimit="10" stroke-linecap="round"></path>
      <path d="M833.221 829.319L830.311 835.849" stroke="black" stroke-width="4" stroke-miterlimit="10" stroke-linecap="round"></path>
      <path d="M839.66 826.989L841.26 833.949" stroke="black" stroke-width="4" stroke-miterlimit="10" stroke-linecap="round"></path>
    </g>
    <mask id="mask4_661_13165" style="mask-type:luminance" maskUnits="userSpaceOnUse" x="568" y="355" width="209" height="186">
      <path d="M776.21 355.459H568.75V540.649H776.21V355.459Z" fill="white"></path>
    </mask>
    <g mask="url(#mask4_661_13165)">
      <path d="M683.54 384.919C683.54 384.919 693.82 404.779 710.07 399.789C726.32 394.799 725.68 370.359 725.68 370.359" stroke="black" stroke-width="8" stroke-miterlimit="10" stroke-linecap="round"></path>
      <path d="M711.77 458.259C711.77 458.259 719.729 481.279 736.729 481.349C753.729 481.419 756.329 456.879 756.329 456.879" stroke="black" stroke-width="8" stroke-miterlimit="10" stroke-linecap="round"></path>
      <path d="M724.939 437.479L722.52 448.759" stroke="black" stroke-width="8" stroke-miterlimit="10" stroke-linecap="round"></path>
      <path d="M740.18 439.379L741.28 450.859" stroke="black" stroke-width="8" stroke-miterlimit="10" stroke-linecap="round"></path>
      <path d="M719.72 521.579C719.72 521.579 726.56 533.609 736.49 530.129C746.42 526.649 745.43 511.539 745.43 511.539" stroke="black" stroke-width="4" stroke-miterlimit="10" stroke-linecap="round"></path>
      <path d="M727.16 510.689L728.05 517.769" stroke="black" stroke-width="4" stroke-miterlimit="10" stroke-linecap="round"></path>
      <path d="M731.46 505.349L736.43 510.479" stroke="black" stroke-width="4" stroke-miterlimit="10" stroke-linecap="round"></path>
      <path d="M755.989 391.729C755.989 391.729 755.729 401.249 762.819 402.739C769.909 404.229 774.699 394.979 774.699 394.979" stroke="black" stroke-width="3" stroke-miterlimit="10" stroke-linecap="round"></path>
    </g>
    <mask id="mask5_661_13165" style="mask-type:luminance" maskUnits="userSpaceOnUse" x="568" y="540" width="209" height="186">
      <path d="M776.21 540.649H568.75V725.839H776.21V540.649Z" fill="white"></path>
    </mask>
    <g mask="url(#mask5_661_13165)">
      <path d="M683.54 570.109C683.54 570.109 693.82 589.969 710.07 584.979C726.32 579.989 725.68 555.549 725.68 555.549" stroke="black" stroke-width="8" stroke-miterlimit="10" stroke-linecap="round"></path>
      <path d="M711.77 643.449C711.77 643.449 719.729 666.469 736.729 666.539C753.729 666.609 756.329 642.069 756.329 642.069" stroke="black" stroke-width="8" stroke-miterlimit="10" stroke-linecap="round"></path>
      <path d="M724.939 622.669L722.52 633.949" stroke="black" stroke-width="8" stroke-miterlimit="10" stroke-linecap="round"></path>
      <path d="M740.18 624.569L741.28 636.049" stroke="black" stroke-width="8" stroke-miterlimit="10" stroke-linecap="round"></path>
      <path d="M719.72 706.769C719.72 706.769 726.56 718.799 736.49 715.319C746.42 711.839 745.43 696.729 745.43 696.729" stroke="black" stroke-width="4" stroke-miterlimit="10" stroke-linecap="round"></path>
      <path d="M727.16 695.879L728.05 702.959" stroke="black" stroke-width="4" stroke-miterlimit="10" stroke-linecap="round"></path>
      <path d="M731.46 690.539L736.43 695.669" stroke="black" stroke-width="4" stroke-miterlimit="10" stroke-linecap="round"></path>
      <path d="M755.989 576.919C755.989 576.919 755.729 586.439 762.819 587.929C769.909 589.419 774.699 580.169 774.699 580.169" stroke="black" stroke-width="3" stroke-miterlimit="10" stroke-linecap="round"></path>
      <path d="M764.25 573.149L762.26 577.639" stroke="black" stroke-width="3" stroke-miterlimit="10" stroke-linecap="round"></path>
      <path d="M768.689 571.539L769.79 576.329" stroke="black" stroke-width="3" stroke-miterlimit="10" stroke-linecap="round"></path>
    </g>
    <mask id="mask6_661_13165" style="mask-type:luminance" maskUnits="userSpaceOnUse" x="568" y="725" width="209" height="187">
      <path d="M776.21 725.839H568.75V911.029H776.21V725.839Z" fill="white"></path>
    </mask>
    <g mask="url(#mask6_661_13165)">
      <path d="M683.54 755.299C683.54 755.299 693.82 775.159 710.07 770.169C726.32 765.179 725.68 740.739 725.68 740.739" stroke="black" stroke-width="8" stroke-miterlimit="10" stroke-linecap="round"></path>
      <path d="M711.77 828.639C711.77 828.639 719.729 851.659 736.729 851.729C753.729 851.799 756.329 827.259 756.329 827.259" stroke="black" stroke-width="8" stroke-miterlimit="10" stroke-linecap="round"></path>
      <path d="M724.939 807.859L722.52 819.139" stroke="black" stroke-width="8" stroke-miterlimit="10" stroke-linecap="round"></path>
      <path d="M740.18 809.759L741.28 821.239" stroke="black" stroke-width="8" stroke-miterlimit="10" stroke-linecap="round"></path>
      <path d="M755.989 762.109C755.989 762.109 755.729 771.629 762.819 773.119C769.909 774.609 774.699 765.359 774.699 765.359" stroke="black" stroke-width="3" stroke-miterlimit="10" stroke-linecap="round"></path>
      <path d="M764.25 758.339L762.26 762.829" stroke="black" stroke-width="3" stroke-miterlimit="10" stroke-linecap="round"></path>
      <path d="M768.689 756.729L769.79 761.519" stroke="black" stroke-width="3" stroke-miterlimit="10" stroke-linecap="round"></path>
    </g>
  </g>
  <path d="M798.06 405.749C832.47 405.749 859.53 435.179 856.65 469.469L849.22 557.799C845.08 607.019 845.08 656.489 849.22 705.709L856.65 794.039C859.53 828.329 832.48 857.759 798.06 857.759C767.5 857.759 742.03 834.349 739.47 803.889L731.22 705.709C727.08 656.489 727.08 607.019 731.22 557.799L739.47 459.619C742.03 429.169 767.5 405.749 798.06 405.749ZM798.06 397.749C781.27 397.749 765.21 404.009 752.85 415.369C740.49 426.739 732.91 442.209 731.5 458.939L723.25 557.119C719.09 606.639 719.09 656.849 723.25 706.369L731.5 804.549C732.91 821.279 740.49 836.759 752.85 848.119C765.21 859.489 781.27 865.739 798.06 865.739C816.69 865.739 834.62 857.869 847.23 844.159C859.84 830.449 866.18 811.929 864.62 793.359L857.19 705.029C853.1 656.399 853.1 607.089 857.19 558.459L864.62 470.129C866.18 451.559 859.84 433.039 847.23 419.329C834.62 405.619 816.7 397.749 798.06 397.749Z" fill="black"></path>
  <path d="M775 236.749H558V358.749H775V236.749Z" fill="#363795"></path>
  <path d="M771 240.749V354.749H562V240.749H771ZM779 232.749H554V362.749H779V232.749Z" fill="black"></path>
  <path d="M737 236.749H520V358.749H737V236.749Z" fill="#4A63AE"></path>
  <path d="M733 240.749V354.749H524V240.749H733ZM741 232.749H516V362.749H741V232.749Z" fill="black"></path>
  <path d="M605 298.749C605 282.733 592.016 269.749 576 269.749C559.984 269.749 547 282.733 547 298.749C547 314.765 559.984 327.749 576 327.749C592.016 327.749 605 314.765 605 298.749Z" fill="black"></path>
  <path d="M701 298.749C701 282.733 688.016 269.749 672 269.749C655.984 269.749 643 282.733 643 298.749C643 314.765 655.984 327.749 672 327.749C688.016 327.749 701 314.765 701 298.749Z" fill="black"></path>
  <path d="M587 354.749H542V384.749H587V354.749Z" fill="black"></path>
  <path d="M753 354.749H708V384.749H753V354.749Z" fill="black"></path>
</svg>
