<svg width="918" height="574" viewBox="0 0 918 574" fill="none" xmlns="http://www.w3.org/2000/svg">
<rect width="1015" height="76" transform="translate(38) rotate(30)" fill="#FF8A00"/>
<path d="M24.368 56.7918L27.6173 51.1639L33.5812 54.6072C33.8332 54.7526 34.1047 54.5734 34.2744 54.2794L34.3472 54.1534L28.0052 50.4919L38.9898 31.4661C41.1237 27.7701 44.9483 26.6743 48.9382 28.9779L54.7762 32.3485L43.7674 51.4163L38.0974 48.1427L45.9782 34.4929L45.6842 34.3231C45.4322 34.1776 45.088 34.4829 44.8697 34.8609L37.0375 48.4267L43.3794 52.0882L40.1544 57.6742C38.0205 61.3701 34.3219 62.5387 30.3319 60.2351L24.368 56.7918ZM44.3466 68.3265L38.0467 64.6892L56.233 33.1896L62.533 36.8268L44.3466 68.3265ZM45.8593 69.1998L64.0456 37.7002L69.9255 41.0949L54.8915 67.1347L55.5635 67.5226L66.9603 47.7829L72.6302 51.0564L58.0811 76.2561L45.8593 69.1998ZM75.0082 78.525L71.7589 84.153L59.537 77.0967L77.7233 45.597L89.9452 52.6533L78.9364 71.7211L73.2665 68.4476L81.1472 54.7977L80.4752 54.4097L72.2065 68.7316L78.5484 72.3931L75.3961 77.853L69.0542 74.1915L68.6662 74.8635L75.0082 78.525ZM73.2558 85.0172L91.4421 53.5175L103.874 60.6951L85.6876 92.1947L79.8077 88.8L94.866 62.7182L94.194 62.3303L79.1357 88.412L73.2558 85.0172ZM87.1376 93.0319L101.759 67.7061C103.893 64.0102 107.592 62.8416 111.582 65.1452L117.756 68.7098L106.747 87.7775L100.867 84.3828L108.748 70.7329L108.454 70.5632C108.202 70.4177 107.858 70.7229 107.639 71.1009L96.1698 90.9667L96.4638 91.1365C96.7158 91.2819 97.0358 91.0187 97.254 90.6407L100.479 85.0548L106.359 88.4495L103.134 94.0355C101 97.7314 97.3015 98.9 93.2695 96.5721L87.1376 93.0319ZM107.321 104.685L101.021 101.048L119.208 69.548L125.508 73.1853L107.321 104.685ZM108.792 105.534L123.414 80.2083C125.548 76.5123 129.246 75.3438 133.236 77.6474L139.41 81.2119L124.788 106.538C122.654 110.234 118.956 111.402 114.924 109.074L108.792 105.534ZM117.824 103.469L118.118 103.639C118.37 103.784 118.69 103.521 118.908 103.143L130.402 83.2351L130.108 83.0653C129.856 82.9198 129.512 83.2251 129.294 83.6031L117.824 103.469Z" fill="#0F0F0F"/>
<path d="M149.941 129.292L153.191 123.664L159.154 127.107C159.406 127.253 159.678 127.073 159.848 126.779L159.92 126.653L153.578 122.992L164.563 103.966C166.697 100.27 170.522 99.1743 174.511 101.478L180.349 104.848L169.341 123.916L163.671 120.643L171.551 106.993L171.257 106.823C171.005 106.678 170.661 106.983 170.443 107.361L162.611 120.927L168.953 124.588L165.728 130.174C163.594 133.87 159.895 135.039 155.905 132.735L149.941 129.292ZM169.92 140.826L163.62 137.189L181.806 105.69L188.106 109.327L169.92 140.826ZM171.433 141.7L189.619 110.2L195.499 113.595L180.465 139.635L181.137 140.023L192.534 120.283L198.203 123.556L183.654 148.756L171.433 141.7ZM200.581 151.025L197.332 156.653L185.11 149.597L203.297 118.097L215.518 125.153L204.51 144.221L198.84 140.948L206.72 127.298L206.048 126.91L197.78 141.232L204.122 144.893L200.969 150.353L194.627 146.692L194.239 147.364L200.581 151.025ZM198.829 157.517L217.015 126.018L229.447 133.195L211.261 164.695L205.381 161.3L220.439 135.218L219.767 134.83L204.709 160.912L198.829 157.517ZM212.711 165.532L227.333 140.206C229.467 136.51 233.165 135.342 237.155 137.645L243.329 141.21L232.32 160.278L226.44 156.883L234.321 143.233L234.027 143.063C233.775 142.918 233.431 143.223 233.213 143.601L221.743 163.467L222.037 163.636C222.289 163.782 222.609 163.519 222.827 163.141L226.052 157.555L231.932 160.95L228.707 166.535C226.573 170.231 222.875 171.4 218.843 169.072L212.711 165.532ZM232.895 177.185L226.595 173.548L244.781 142.048L251.081 145.685L232.895 177.185ZM234.365 178.034L248.987 152.708C251.121 149.012 254.82 147.844 258.809 150.147L264.983 153.712L250.362 179.038C248.228 182.734 244.529 183.902 240.497 181.574L234.365 178.034ZM243.397 175.969L243.691 176.139C243.943 176.284 244.263 176.021 244.482 175.643L255.975 155.735L255.681 155.565C255.429 155.42 255.085 155.725 254.867 156.103L243.397 175.969Z" fill="#0F0F0F"/>
<path d="M275.515 201.792L278.765 196.164L284.729 199.607C284.981 199.753 285.252 199.573 285.422 199.279L285.495 199.153L279.153 195.492L290.137 176.466C292.271 172.77 296.096 171.674 300.086 173.978L305.924 177.348L294.915 196.416L289.245 193.143L297.126 179.493L296.832 179.323C296.58 179.178 296.235 179.483 296.017 179.861L288.185 193.427L294.527 197.088L291.302 202.674C289.168 206.37 285.469 207.539 281.479 205.235L275.515 201.792ZM295.494 213.326L289.194 209.689L307.38 178.19L313.68 181.827L295.494 213.326ZM297.007 214.2L315.193 182.7L321.073 186.095L306.039 212.135L306.711 212.523L318.108 192.783L323.778 196.056L309.229 221.256L297.007 214.2ZM326.156 223.525L322.906 229.153L310.684 222.097L328.871 190.597L341.093 197.653L330.084 216.721L324.414 213.448L332.295 199.798L331.623 199.41L323.354 213.732L329.696 217.393L326.544 222.853L320.202 219.192L319.814 219.864L326.156 223.525ZM324.403 230.017L342.59 198.518L355.021 205.695L336.835 237.195L330.955 233.8L346.013 207.718L345.341 207.33L330.283 233.412L324.403 230.017ZM338.285 238.032L352.907 212.706C355.041 209.01 358.739 207.842 362.729 210.145L368.903 213.71L357.894 232.778L352.015 229.383L359.895 215.733L359.601 215.563C359.349 215.418 359.005 215.723 358.787 216.101L347.317 235.967L347.611 236.136C347.863 236.282 348.183 236.019 348.401 235.641L351.627 230.055L357.506 233.45L354.281 239.035C352.148 242.731 348.449 243.9 344.417 241.572L338.285 238.032ZM358.469 249.685L352.169 246.048L370.355 214.548L376.655 218.185L358.469 249.685ZM359.939 250.534L374.561 225.208C376.695 221.512 380.394 220.344 384.384 222.647L390.558 226.212L375.936 251.538C373.802 255.234 370.103 256.402 366.071 254.074L359.939 250.534ZM368.972 248.469L369.266 248.639C369.518 248.784 369.838 248.521 370.056 248.143L381.55 228.235L381.256 228.065C381.004 227.92 380.659 228.225 380.441 228.603L368.972 248.469Z" fill="#0F0F0F"/>
<path d="M401.089 274.292L404.338 268.664L410.302 272.107C410.554 272.253 410.825 272.073 410.995 271.779L411.068 271.653L404.726 267.992L415.71 248.966C417.844 245.27 421.669 244.174 425.659 246.478L431.497 249.848L420.488 268.916L414.818 265.643L422.699 251.993L422.405 251.823C422.153 251.678 421.809 251.983 421.59 252.361L413.758 265.927L420.1 269.588L416.875 275.174C414.741 278.87 411.043 280.039 407.053 277.735L401.089 274.292ZM421.067 285.826L414.767 282.189L432.954 250.69L439.254 254.327L421.067 285.826ZM422.58 286.7L440.766 255.2L446.646 258.595L431.612 284.635L432.284 285.023L443.681 265.283L449.351 268.556L434.802 293.756L422.58 286.7ZM451.729 296.025L448.48 301.653L436.258 294.597L454.444 263.097L466.666 270.153L455.657 289.221L449.987 285.948L457.868 272.298L457.196 271.91L448.927 286.232L455.269 289.893L452.117 295.353L445.775 291.692L445.387 292.364L451.729 296.025ZM449.976 302.517L468.163 271.018L480.595 278.195L462.408 309.695L456.528 306.3L471.587 280.218L470.915 279.83L455.856 305.912L449.976 302.517ZM463.858 310.532L478.48 285.206C480.614 281.51 484.313 280.342 488.303 282.645L494.476 286.21L483.468 305.278L477.588 301.883L485.469 288.233L485.175 288.063C484.923 287.918 484.578 288.223 484.36 288.601L472.891 308.467L473.185 308.636C473.437 308.782 473.757 308.519 473.975 308.141L477.2 302.555L483.08 305.95L479.855 311.535C477.721 315.231 474.022 316.4 469.99 314.072L463.858 310.532ZM484.042 322.185L477.742 318.548L495.928 287.048L502.228 290.685L484.042 322.185ZM485.513 323.034L500.134 297.708C502.268 294.012 505.967 292.844 509.957 295.147L516.131 298.712L501.509 324.038C499.375 327.734 495.677 328.902 491.645 326.574L485.513 323.034ZM494.545 320.969L494.839 321.139C495.091 321.284 495.411 321.021 495.629 320.643L507.123 300.735L506.829 300.565C506.577 300.42 506.233 300.725 506.014 301.103L494.545 320.969Z" fill="#0F0F0F"/>
<path d="M526.663 346.792L529.912 341.164L535.876 344.607C536.128 344.753 536.4 344.573 536.569 344.279L536.642 344.153L530.3 340.492L541.285 321.466C543.419 317.77 547.243 316.674 551.233 318.978L557.071 322.348L546.062 341.416L540.392 338.143L548.273 324.493L547.979 324.323C547.727 324.178 547.383 324.483 547.165 324.861L539.332 338.427L545.674 342.088L542.449 347.674C540.315 351.37 536.617 352.539 532.627 350.235L526.663 346.792ZM546.642 358.326L540.342 354.689L558.528 323.19L564.828 326.827L546.642 358.326ZM548.154 359.2L566.341 327.7L572.22 331.095L557.186 357.135L557.858 357.523L569.255 337.783L574.925 341.056L560.376 366.256L548.154 359.2ZM577.303 368.525L574.054 374.153L561.832 367.097L580.018 335.597L592.24 342.653L581.231 361.721L575.561 358.448L583.442 344.798L582.77 344.41L574.501 358.732L580.843 362.393L577.691 367.853L571.349 364.192L570.961 364.864L577.303 368.525ZM575.551 375.017L593.737 343.518L606.169 350.695L587.983 382.195L582.103 378.8L597.161 352.718L596.489 352.33L581.431 378.412L575.551 375.017ZM589.433 383.032L604.054 357.706C606.188 354.01 609.887 352.842 613.877 355.145L620.051 358.71L609.042 377.778L603.162 374.383L611.043 360.733L610.749 360.563C610.497 360.418 610.152 360.723 609.934 361.101L598.465 380.967L598.759 381.136C599.011 381.282 599.331 381.019 599.549 380.641L602.774 375.055L608.654 378.45L605.429 384.035C603.295 387.731 599.596 388.9 595.564 386.572L589.433 383.032ZM609.616 394.685L603.316 391.048L621.503 359.548L627.803 363.185L609.616 394.685ZM611.087 395.534L625.709 370.208C627.843 366.512 631.541 365.344 635.531 367.647L641.705 371.212L627.083 396.538C624.949 400.234 621.251 401.402 617.219 399.074L611.087 395.534ZM620.119 393.469L620.413 393.639C620.665 393.784 620.985 393.521 621.203 393.143L632.697 373.235L632.403 373.065C632.151 372.92 631.807 373.225 631.589 373.603L620.119 393.469Z" fill="#0F0F0F"/>
<path d="M652.236 419.292L655.485 413.664L661.449 417.107C661.701 417.253 661.973 417.073 662.143 416.779L662.215 416.653L655.873 412.992L666.858 393.966C668.992 390.27 672.816 389.174 676.806 391.478L682.644 394.848L671.636 413.916L665.966 410.643L673.846 396.993L673.552 396.823C673.3 396.678 672.956 396.983 672.738 397.361L664.906 410.927L671.248 414.588L668.023 420.174C665.889 423.87 662.19 425.039 658.2 422.735L652.236 419.292ZM672.215 430.826L665.915 427.189L684.101 395.69L690.401 399.327L672.215 430.826ZM673.727 431.7L691.914 400.2L697.794 403.595L682.76 429.635L683.432 430.023L694.828 410.283L700.498 413.556L685.949 438.756L673.727 431.7ZM702.876 441.025L699.627 446.653L687.405 439.597L705.592 408.097L717.813 415.153L706.805 434.221L701.135 430.948L709.015 417.298L708.343 416.91L700.075 431.232L706.417 434.893L703.264 440.353L696.922 436.692L696.534 437.364L702.876 441.025ZM701.124 447.517L719.31 416.018L731.742 423.195L713.556 454.695L707.676 451.3L722.734 425.218L722.062 424.83L707.004 450.912L701.124 447.517ZM715.006 455.532L729.628 430.206C731.761 426.51 735.46 425.342 739.45 427.645L745.624 431.21L734.615 450.278L728.735 446.883L736.616 433.233L736.322 433.063C736.07 432.918 735.726 433.223 735.507 433.601L724.038 453.467L724.332 453.636C724.584 453.782 724.904 453.519 725.122 453.141L728.347 447.555L734.227 450.95L731.002 456.535C728.868 460.231 725.17 461.4 721.138 459.072L715.006 455.532ZM735.189 467.185L728.89 463.548L747.076 432.048L753.376 435.685L735.189 467.185ZM736.66 468.034L751.282 442.708C753.416 439.012 757.114 437.844 761.104 440.147L767.278 443.712L752.657 469.038C750.523 472.734 746.824 473.902 742.792 471.574L736.66 468.034ZM745.692 465.969L745.986 466.139C746.238 466.284 746.558 466.021 746.777 465.643L758.27 445.735L757.976 445.565C757.724 445.42 757.38 445.725 757.162 446.103L745.692 465.969Z" fill="#0F0F0F"/>
<path d="M777.81 491.792L781.06 486.164L787.024 489.607C787.276 489.753 787.547 489.573 787.717 489.279L787.79 489.153L781.448 485.492L792.432 466.466C794.566 462.77 798.391 461.674 802.381 463.978L808.219 467.348L797.21 486.416L791.54 483.143L799.421 469.493L799.127 469.323C798.875 469.178 798.53 469.483 798.312 469.861L790.48 483.427L796.822 487.088L793.597 492.674C791.463 496.37 787.764 497.539 783.774 495.235L777.81 491.792ZM797.789 503.326L791.489 499.689L809.675 468.19L815.975 471.827L797.789 503.326ZM799.302 504.2L817.488 472.7L823.368 476.095L808.334 502.135L809.006 502.523L820.403 482.783L826.073 486.056L811.524 511.256L799.302 504.2ZM828.451 513.525L825.201 519.153L812.979 512.097L831.166 480.597L843.388 487.653L832.379 506.721L826.709 503.448L834.59 489.798L833.918 489.41L825.649 503.732L831.991 507.393L828.839 512.853L822.497 509.192L822.109 509.864L828.451 513.525ZM826.698 520.017L844.884 488.518L857.316 495.695L839.13 527.195L833.25 523.8L848.308 497.718L847.636 497.33L832.578 523.412L826.698 520.017ZM840.58 528.032L855.202 502.706C857.336 499.01 861.034 497.842 865.024 500.145L871.198 503.71L860.189 522.778L854.309 519.383L862.19 505.733L861.896 505.563C861.644 505.418 861.3 505.723 861.082 506.101L849.612 525.967L849.906 526.136C850.158 526.282 850.478 526.019 850.696 525.641L853.921 520.055L859.801 523.45L856.576 529.035C854.442 532.731 850.744 533.9 846.712 531.572L840.58 528.032ZM860.764 539.685L854.464 536.048L872.65 504.548L878.95 508.185L860.764 539.685ZM862.234 540.534L876.856 515.208C878.99 511.512 882.689 510.344 886.679 512.647L892.853 516.212L878.231 541.538C876.097 545.234 872.398 546.402 868.366 544.074L862.234 540.534ZM871.267 538.469L871.561 538.639C871.813 538.784 872.133 538.521 872.351 538.143L883.845 518.235L883.551 518.065C883.299 517.92 882.954 518.225 882.736 518.603L871.267 538.469Z" fill="#0F0F0F"/>
</svg>
