<svg width="956" height="365" viewBox="0 0 956 365" fill="none" xmlns="http://www.w3.org/2000/svg">
<g filter="url(#filter0_d_544_10856)">
<rect width="966.435" height="71.3816" transform="translate(21.1626) rotate(17.2458)" fill="#0C6DFF"/>
<path d="M19.1012 55.5789L29.8854 20.8393L50.4512 27.2235L39.6671 61.9631L33.1823 59.9501L42.1116 31.1857L41.3705 30.9556L32.4412 59.72L26.3271 57.822L35.2563 29.0576L34.5152 28.8275L25.5859 57.592L19.1012 55.5789ZM41.3328 62.4802L52.1169 27.7406L58.6016 29.7536L49.6724 58.518L50.4135 58.7481L59.3428 29.9837L65.8275 31.9967L55.0433 66.7363L41.3328 62.4802ZM56.6425 67.2328L58.5692 61.0259L65.1466 63.0677C65.4245 63.154 65.6497 62.9192 65.7504 62.595L65.7935 62.456L58.7993 60.2848L65.3129 39.3021C66.5782 35.226 70.0668 33.3127 74.4672 34.6787L80.9056 36.6774L74.3776 57.7064L68.1244 55.7653L72.7976 40.7114L72.4733 40.6108C72.1954 40.5245 71.9271 40.8982 71.7976 41.3151L67.1533 56.2763L74.1475 58.4475L72.2351 64.608C70.9698 68.6842 67.6202 70.6405 63.2198 69.2746L56.6425 67.2328ZM78.6761 74.0726L71.7281 71.9158L82.5123 37.1761L89.4602 39.333L78.6761 74.0726ZM80.298 74.5761L88.9684 46.6454C90.2338 42.5693 93.5834 40.6129 97.9837 41.9789L104.793 44.0926L98.2647 65.1216L91.78 63.1086L96.4531 48.0548L96.1289 47.9541C95.851 47.8678 95.5826 48.2416 95.4532 48.6584L88.652 70.5676L88.9762 70.6682C89.2541 70.7545 89.5081 70.4271 89.6375 70.0102L91.5499 63.8497L98.0346 65.8628L96.1223 72.0233C94.8569 76.0994 91.5073 78.0558 87.0606 76.6754L80.298 74.5761Z" fill="#0F0F0F"/>
<path d="M121.655 87.4149L132.439 52.6752L153.005 59.0594L142.221 93.7991L135.736 91.786L144.666 63.0216L143.924 62.7915L134.995 91.556L128.881 89.658L137.81 60.8935L137.069 60.6635L128.14 89.4279L121.655 87.4149ZM143.887 94.3161L154.671 59.5765L161.156 61.5895L152.226 90.354L152.967 90.584L161.897 61.8196L168.381 63.8326L157.597 98.5723L143.887 94.3161ZM159.196 99.0687L161.123 92.8619L167.701 94.9037C167.978 94.9899 168.204 94.7552 168.304 94.4309L168.347 94.292L161.353 92.1208L167.867 71.138C169.132 67.0619 172.621 65.1486 177.021 66.5146L183.46 68.5133L176.932 89.5424L170.678 87.6012L175.352 72.5474L175.027 72.4467C174.749 72.3604 174.481 72.7342 174.352 73.1511L169.707 88.1123L176.701 90.2835L174.789 96.444C173.524 100.52 170.174 102.476 165.774 101.11L159.196 99.0687ZM181.23 105.909L174.282 103.752L185.066 69.0121L192.014 71.1689L181.23 105.909ZM182.852 106.412L191.522 78.4813C192.788 74.4052 196.137 72.4488 200.538 73.8148L207.347 75.9285L200.819 96.9576L194.334 94.9445L199.007 79.8907L198.683 79.79C198.405 79.7038 198.137 80.0775 198.007 80.4944L191.206 102.404L191.53 102.504C191.808 102.59 192.062 102.263 192.191 101.846L194.104 95.6857L200.589 97.6987L198.676 103.859C197.411 107.935 194.061 109.892 189.615 108.511L182.852 106.412Z" fill="#0F0F0F"/>
<path d="M224.209 119.249L234.993 84.5092L255.559 90.8934L244.775 125.633L238.29 123.62L247.22 94.8556L246.478 94.6255L237.549 123.39L231.435 121.492L240.364 92.7275L239.623 92.4974L230.694 121.262L224.209 119.249ZM246.441 126.15L257.225 91.4105L263.71 93.4235L254.78 122.188L255.521 122.418L264.451 93.6536L270.935 95.6666L260.151 130.406L246.441 126.15ZM261.75 130.903L263.677 124.696L270.255 126.738C270.532 126.824 270.758 126.589 270.858 126.265L270.901 126.126L263.907 123.955L270.421 102.972C271.686 98.8959 275.175 96.9826 279.575 98.3486L286.013 100.347L279.485 121.376L273.232 119.435L277.905 104.381L277.581 104.281C277.303 104.194 277.035 104.568 276.906 104.985L272.261 119.946L279.255 122.117L277.343 128.278C276.078 132.354 272.728 134.31 268.328 132.944L261.75 130.903ZM283.784 137.743L276.836 135.586L287.62 100.846L294.568 103.003L283.784 137.743ZM285.406 138.246L294.076 110.315C295.342 106.239 298.691 104.283 303.092 105.649L309.901 107.763L303.373 128.792L296.888 126.779L301.561 111.725L301.237 111.624C300.959 111.538 300.69 111.911 300.561 112.328L293.76 134.238L294.084 134.338C294.362 134.424 294.616 134.097 294.745 133.68L296.658 127.52L303.143 129.533L301.23 135.693C299.965 139.769 296.615 141.726 292.169 140.345L285.406 138.246Z" fill="#0F0F0F"/>
<path d="M326.763 151.085L337.547 116.345L358.113 122.729L347.329 157.469L340.844 155.456L349.773 126.692L349.032 126.461L340.103 155.226L333.989 153.328L342.918 124.563L342.177 124.333L333.248 153.098L326.763 151.085ZM348.995 157.986L359.779 123.246L366.264 125.259L357.334 154.024L358.075 154.254L367.005 125.49L373.489 127.503L362.705 162.242L348.995 157.986ZM364.304 162.739L366.231 156.532L372.808 158.574C373.086 158.66 373.312 158.425 373.412 158.101L373.455 157.962L366.461 155.791L372.975 134.808C374.24 130.732 377.729 128.819 382.129 130.185L388.567 132.183L382.039 153.212L375.786 151.271L380.459 136.217L380.135 136.117C379.857 136.03 379.589 136.404 379.46 136.821L374.815 151.782L381.809 153.953L379.897 160.114C378.632 164.19 375.282 166.146 370.882 164.78L364.304 162.739ZM386.338 169.578L379.39 167.422L390.174 132.682L397.122 134.839L386.338 169.578ZM387.96 170.082L396.63 142.151C397.896 138.075 401.245 136.119 405.646 137.485L412.455 139.598L405.927 160.628L399.442 158.614L404.115 143.561L403.791 143.46C403.513 143.374 403.244 143.747 403.115 144.164L396.314 166.073L396.638 166.174C396.916 166.26 397.17 165.933 397.299 165.516L399.212 159.356L405.697 161.369L403.784 167.529C402.519 171.605 399.169 173.562 394.723 172.181L387.96 170.082Z" fill="#0F0F0F"/>
<path d="M429.317 182.921L440.101 148.181L460.667 154.565L449.883 189.305L443.398 187.292L452.327 158.527L451.586 158.297L442.657 187.062L436.543 185.164L445.472 156.399L444.731 156.169L435.802 184.934L429.317 182.921ZM451.549 189.822L462.333 155.082L468.817 157.095L459.888 185.86L460.629 186.09L469.559 157.325L476.043 159.338L465.259 194.078L451.549 189.822ZM466.858 194.575L468.785 188.368L475.362 190.41C475.64 190.496 475.866 190.261 475.966 189.937L476.009 189.798L469.015 187.627L475.529 166.644C476.794 162.568 480.283 160.654 484.683 162.02L491.121 164.019L484.593 185.048L478.34 183.107L483.013 168.053L482.689 167.953C482.411 167.866 482.143 168.24 482.013 168.657L477.369 183.618L484.363 185.789L482.451 191.95C481.186 196.026 477.836 197.982 473.436 196.616L466.858 194.575ZM488.892 201.414L481.944 199.258L492.728 164.518L499.676 166.675L488.892 201.414ZM490.514 201.918L499.184 173.987C500.45 169.911 503.799 167.955 508.2 169.321L515.009 171.434L508.481 192.463L501.996 190.45L506.669 175.397L506.345 175.296C506.067 175.21 505.798 175.583 505.669 176L498.868 197.909L499.192 198.01C499.47 198.096 499.724 197.769 499.853 197.352L501.766 191.192L508.25 193.205L506.338 199.365C505.073 203.441 501.723 205.398 497.276 204.017L490.514 201.918Z" fill="#0F0F0F"/>
<path d="M531.871 214.757L542.655 180.017L563.221 186.401L552.437 221.141L545.952 219.128L554.881 190.363L554.14 190.133L545.211 218.898L539.097 217L548.026 188.235L547.285 188.005L538.356 216.77L531.871 214.757ZM554.103 221.658L564.887 186.918L571.371 188.931L562.442 217.696L563.183 217.926L572.113 189.161L578.597 191.174L567.813 225.914L554.103 221.658ZM569.412 226.41L571.339 220.204L577.916 222.245C578.194 222.332 578.42 222.097 578.52 221.773L578.563 221.634L571.569 219.463L578.083 198.48C579.348 194.404 582.837 192.49 587.237 193.856L593.675 195.855L587.147 216.884L580.894 214.943L585.567 199.889L585.243 199.789C584.965 199.702 584.697 200.076 584.567 200.493L579.923 215.454L586.917 217.625L585.005 223.786C583.74 227.862 580.39 229.818 575.99 228.452L569.412 226.41ZM591.446 233.25L584.498 231.094L595.282 196.354L602.23 198.511L591.446 233.25ZM593.068 233.754L601.738 205.823C603.004 201.747 606.353 199.791 610.754 201.157L617.562 203.27L611.034 224.299L604.55 222.286L609.223 207.232L608.899 207.132C608.621 207.046 608.352 207.419 608.223 207.836L601.422 229.745L601.746 229.846C602.024 229.932 602.278 229.605 602.407 229.188L604.32 223.027L610.804 225.04L608.892 231.201C607.627 235.277 604.277 237.234 599.83 235.853L593.068 233.754Z" fill="#0F0F0F"/>
<path d="M634.425 246.593L645.209 211.853L665.775 218.237L654.991 252.977L648.506 250.964L657.435 222.199L656.694 221.969L647.765 250.734L641.651 248.836L650.58 220.071L649.839 219.841L640.91 248.606L634.425 246.593ZM656.656 253.494L667.441 218.754L673.925 220.767L664.996 249.532L665.737 249.762L674.666 220.997L681.151 223.01L670.367 257.75L656.656 253.494ZM671.966 258.246L673.893 252.04L680.47 254.081C680.748 254.168 680.973 253.933 681.074 253.609L681.117 253.47L674.123 251.298L680.637 230.316C681.902 226.24 685.391 224.326 689.791 225.692L696.229 227.691L689.701 248.72L683.448 246.779L688.121 231.725L687.797 231.624C687.519 231.538 687.251 231.912 687.121 232.329L682.477 247.29L689.471 249.461L687.559 255.622C686.294 259.698 682.944 261.654 678.544 260.288L671.966 258.246ZM694 265.086L687.052 262.929L697.836 228.19L704.784 230.347L694 265.086ZM695.622 265.59L704.292 237.659C705.558 233.583 708.907 231.627 713.307 232.993L720.116 235.106L713.588 256.135L707.104 254.122L711.777 239.068L711.453 238.968C711.175 238.882 710.906 239.255 710.777 239.672L703.976 261.581L704.3 261.682C704.578 261.768 704.832 261.441 704.961 261.024L706.874 254.863L713.358 256.876L711.446 263.037C710.181 267.113 706.831 269.069 702.384 267.689L695.622 265.59Z" fill="#0F0F0F"/>
<path d="M736.979 278.427L747.763 243.687L768.329 250.071L757.545 284.811L751.06 282.798L759.989 254.033L759.248 253.803L750.319 282.568L744.205 280.67L753.134 251.905L752.393 251.675L743.464 280.44L736.979 278.427ZM759.21 285.328L769.995 250.588L776.479 252.601L767.55 281.366L768.291 281.596L777.22 252.831L783.705 254.844L772.921 289.584L759.21 285.328ZM774.52 290.08L776.447 283.874L783.024 285.915C783.302 286.002 783.527 285.767 783.628 285.443L783.671 285.304L776.677 283.132L783.191 262.15C784.456 258.074 787.945 256.16 792.345 257.526L798.783 259.525L792.255 280.554L786.002 278.613L790.675 263.559L790.351 263.458C790.073 263.372 789.805 263.746 789.675 264.163L785.031 279.124L792.025 281.295L790.113 287.456C788.847 291.532 785.498 293.488 781.098 292.122L774.52 290.08ZM796.554 296.92L789.606 294.763L800.39 260.024L807.338 262.181L796.554 296.92ZM798.176 297.424L806.846 269.493C808.111 265.417 811.461 263.461 815.861 264.827L822.67 266.94L816.142 287.969L809.658 285.956L814.331 270.902L814.007 270.802C813.729 270.715 813.46 271.089 813.331 271.506L806.53 293.415L806.854 293.516C807.132 293.602 807.386 293.275 807.515 292.858L809.428 286.697L815.912 288.71L814 294.871C812.735 298.947 809.385 300.903 804.938 299.523L798.176 297.424Z" fill="#0F0F0F"/>
<path d="M839.533 310.263L850.317 275.523L870.883 281.907L860.099 316.647L853.614 314.634L862.543 285.869L861.802 285.639L852.873 314.404L846.759 312.506L855.688 283.741L854.947 283.511L846.018 312.276L839.533 310.263ZM861.764 317.164L872.549 282.424L879.033 284.437L870.104 313.202L870.845 313.432L879.774 284.667L886.259 286.68L875.475 321.42L861.764 317.164ZM877.074 321.916L879.001 315.71L885.578 317.751C885.856 317.838 886.081 317.603 886.182 317.279L886.225 317.14L879.231 314.968L885.745 293.986C887.01 289.91 890.498 287.996 894.899 289.362L901.337 291.361L894.809 312.39L888.556 310.449L893.229 295.395L892.905 295.294C892.627 295.208 892.359 295.582 892.229 295.999L887.585 310.96L894.579 313.131L892.667 319.292C891.401 323.368 888.052 325.324 883.651 323.958L877.074 321.916ZM899.108 328.756L892.16 326.599L902.944 291.86L909.892 294.017L899.108 328.756ZM900.73 329.26L909.4 301.329C910.665 297.253 914.015 295.296 918.415 296.662L925.224 298.776L918.696 319.805L912.212 317.792L916.885 302.738L916.561 302.638C916.283 302.551 916.014 302.925 915.885 303.342L909.084 325.251L909.408 325.352C909.686 325.438 909.94 325.111 910.069 324.694L911.982 318.533L918.466 320.546L916.554 326.707C915.289 330.783 911.939 332.739 907.492 331.359L900.73 329.26Z" fill="#0F0F0F"/>
</g>
<defs>
<filter id="filter0_d_544_10856" x="0" y="0" width="955.272" height="364.961" filterUnits="userSpaceOnUse" color-interpolation-filters="sRGB">
<feFlood flood-opacity="0" result="BackgroundImageFix"/>
<feColorMatrix in="SourceAlpha" type="matrix" values="0 0 0 0 0 0 0 0 0 0 0 0 0 0 0 0 0 0 127 0" result="hardAlpha"/>
<feOffset dx="11.1238" dy="10.2681"/>
<feComposite in2="hardAlpha" operator="out"/>
<feColorMatrix type="matrix" values="0 0 0 0 0.0583333 0 0 0 0 0.0583333 0 0 0 0 0.0583333 0 0 0 1 0"/>
<feBlend mode="normal" in2="BackgroundImageFix" result="effect1_dropShadow_544_10856"/>
<feBlend mode="normal" in="SourceGraphic" in2="effect1_dropShadow_544_10856" result="shape"/>
</filter>
</defs>
</svg>
