<svg width="22" height="22" viewBox="0 0 22 22" fill="none" xmlns="http://www.w3.org/2000/svg">
<path fill-rule="evenodd" clip-rule="evenodd" d="M11 22C4.92487 22 -1.90735e-06 17.0751 -1.90735e-06 11C-1.90735e-06 4.92487 4.92487 0 11 0C17.0751 0 22 4.92487 22 11C22 17.0751 17.0751 22 11 22ZM8.82923 8.53308L10.5299 3.9371C10.6914 3.5007 11.3086 3.5007 11.4701 3.9371L13.1708 8.53308C13.2215 8.67029 13.3297 8.77846 13.4669 8.82923L18.0629 10.5299C18.4993 10.6914 18.4993 11.3086 18.0629 11.4701L13.4669 13.1708C13.3297 13.2215 13.2215 13.3297 13.1708 13.4669L11.4701 18.0629C11.3086 18.4993 10.6914 18.4993 10.5299 18.0629L8.82923 13.4669C8.77846 13.3297 8.67028 13.2215 8.53308 13.1708L3.93709 11.4701C3.50069 11.3086 3.50069 10.6914 3.9371 10.5299L8.53308 8.82923C8.67028 8.77846 8.77846 8.67029 8.82923 8.53308Z" fill="#0C6DFF"/>
</svg>