<svg width="56" height="53" viewBox="0 0 56 53" fill="none" xmlns="http://www.w3.org/2000/svg">
<rect x="2.33906" y="23.4514" width="47.9418" height="21.7074" transform="rotate(-15.4868 2.33906 23.4514)" fill="#0F0F0F" stroke="#0F0F0F" stroke-width="2.5"/>
<path d="M8.98508 42.7563L7.78046 43.0901L8.11423 44.2947C9.57665 49.5727 15.0408 52.6659 20.3188 51.2035L47.4066 43.6981C52.6846 42.2357 55.7778 36.7715 54.3154 31.4935L53.1107 31.8272L52.777 30.6226L8.98508 42.7563Z" fill="#FF8A00" stroke="#0F0F0F" stroke-width="2.5"/>
<path d="M2.36008 23.5274L2.69385 24.732L3.89847 24.3983L47.6904 12.2646L48.895 11.9308L48.5612 10.7262C46.6875 3.96383 39.7335 -0.0349546 33.0102 1.82792C28.1845 3.16498 24.811 7.15233 23.9839 11.7971C20.8843 8.24032 15.9398 6.5577 11.1142 7.89477C4.3909 9.75764 0.486397 16.7651 2.36008 23.5274Z" fill="#FF8A00" stroke="#0F0F0F" stroke-width="2.5"/>
<path d="M17.539 19.2407L16.3344 19.5745L16.6682 20.7791L21.3591 37.7089C22.7524 42.7376 27.9584 45.6846 32.9871 44.2913C38.0158 42.898 40.9628 37.6919 39.5695 32.6633L34.8786 15.7334L34.5448 14.5288L33.3402 14.8626L17.539 19.2407Z" fill="#FF4392" stroke="#0F0F0F" stroke-width="2.5"/>
<path d="M25.6169 17.6914L29.6511 32.2511" stroke="#0F0F0F" stroke-width="3"/>
<path d="M3.54367 23.1177L2.33906 23.4514L2.67283 24.656L4.03198 29.5614C4.36378 30.7589 5.60355 31.4607 6.80107 31.1289L10.2912 30.1618C11.4888 29.83 12.1906 28.5903 11.8588 27.3927L10.4996 22.4874L10.1658 21.2828L8.96122 21.6166L3.54367 23.1177Z" fill="white" stroke="#0F0F0F" stroke-width="2.5"/>
<path d="M10.1765 21.2798L8.97187 21.6135L9.30564 22.8181L10.6408 27.6369C10.9726 28.8344 12.2124 29.5362 13.4099 29.2044L17.2649 28.1363C18.4625 27.8045 19.1643 26.5647 18.8325 25.3672L17.4973 20.5484L17.1635 19.3438L15.9589 19.6776L10.1765 21.2798Z" fill="white" stroke="#0F0F0F" stroke-width="2.5"/>
<path d="M47.3354 10.9848L48.54 10.6511L48.8738 11.8557L50.233 16.761C50.5648 17.9585 49.863 19.1983 48.6654 19.5301L45.1753 20.4971C43.9777 20.829 42.738 20.1271 42.4062 18.9296L41.047 14.0243L40.7133 12.8197L41.9179 12.4859L47.3354 10.9848Z" fill="white" stroke="#0F0F0F" stroke-width="2.5"/>
<path d="M40.7026 12.8227L41.9072 12.489L42.241 13.6936L43.5762 18.5123C43.908 19.7098 43.2062 20.9496 42.0086 21.2814L38.1536 22.3496C36.9561 22.6814 35.7163 21.9796 35.3845 20.782L34.0493 15.9633L33.7156 14.7587L34.9202 14.4249L40.7026 12.8227Z" fill="white" stroke="#0F0F0F" stroke-width="2.5"/>
<path d="M17.0876 19.3657L15.883 19.6995L16.2168 20.9041L18.0763 27.6153C18.4081 28.8128 19.6479 29.5146 20.8454 29.1828L26.5929 27.5903C27.7904 27.2585 28.4922 26.0187 28.1604 24.8212L26.3009 18.11L25.9671 16.9054L24.7625 17.2392L17.0876 19.3657Z" fill="white" stroke="#0F0F0F" stroke-width="2.5"/>
<path d="M25.8911 16.9262L24.6865 17.26L25.0202 18.4646L26.8797 25.1758C27.2116 26.3733 28.4513 27.0751 29.6488 26.7433L35.3963 25.1508C36.5938 24.819 37.2957 23.5793 36.9638 22.3817L35.1043 15.6706L34.7706 14.4659L33.566 14.7997L25.8911 16.9262Z" fill="white" stroke="#0F0F0F" stroke-width="2.5"/>
</svg>
