<svg width="184" height="66" viewBox="0 0 184 66" fill="none" xmlns="http://www.w3.org/2000/svg">
<rect x="2.27486" y="1.44722" width="180.179" height="62.2305" rx="31.1152" fill="#0C6DFF"/>
<circle cx="33.5129" cy="32.6843" r="16.0364" fill="#EFEFEF" stroke="#0C6DFF" stroke-width="0.979322"/>
<circle cx="33.5128" cy="32.6851" r="6.37848" fill="black"/>
<path d="M64.9293 31.5392C64.3641 32.1043 64.3641 33.0207 64.9293 33.5858L74.1394 42.7959C74.7045 43.3611 75.6209 43.3611 76.186 42.7959C76.7512 42.2307 76.7512 41.3144 76.186 40.7492L67.9993 32.5625L76.186 24.3758C76.7512 23.8106 76.7512 22.8943 76.186 22.3291C75.6209 21.7639 74.7045 21.7639 74.1394 22.3291L64.9293 31.5392ZM119.8 33.5858C120.365 33.0207 120.365 32.1043 119.8 31.5392L110.589 22.3291C110.024 21.7639 109.108 21.7639 108.543 22.3291C107.978 22.8943 107.978 23.8106 108.543 24.3758L116.729 32.5625L108.543 40.7492C107.978 41.3144 107.978 42.2307 108.543 42.7959C109.108 43.3611 110.024 43.3611 110.589 42.7959L119.8 33.5858ZM65.9526 34.0097H118.776V31.1153H65.9526V34.0097Z" fill="#0F0F0F"/>
<circle cx="151.461" cy="32.6843" r="16.0364" fill="#EFEFEF" stroke="#0C6DFF" stroke-width="0.979322"/>
<circle cx="151.461" cy="32.6851" r="6.37848" fill="black"/>
<rect x="2.27486" y="1.44722" width="180.179" height="62.2305" rx="31.1152" stroke="#0F0F0F" stroke-width="2.89444"/>
</svg>
