<svg width="643" height="59" viewBox="0 0 643 59" fill="none" xmlns="http://www.w3.org/2000/svg">
<path d="M10.2361 38.247H70.9719C74.6074 49.1765 84.9157 57.0608 97.0693 57.0608C109.223 57.0608 119.531 49.1765 123.167 38.247H295.291C298.927 49.1765 309.235 57.0608 321.388 57.0608C333.542 57.0608 343.85 49.1765 347.486 38.247H519.61C523.246 49.1765 533.554 57.0608 545.708 57.0608C557.861 57.0608 568.169 49.1765 571.805 38.247H632.541C637.336 38.247 641.224 34.359 641.224 29.5636C641.224 24.7682 637.336 20.8803 632.541 20.8803H571.805C568.169 9.95078 557.861 2.06645 545.708 2.06645C533.554 2.06645 523.246 9.95078 519.61 20.8803H347.486C343.85 9.95078 333.542 2.06645 321.388 2.06645C309.235 2.06645 298.927 9.95078 295.291 20.8803H123.167C119.531 9.95078 109.223 2.06645 97.0693 2.06645C84.9157 2.06645 74.6074 9.95078 70.9719 20.8803H10.2361C5.44071 20.8803 1.55278 24.7682 1.55278 29.5636C1.55278 34.359 5.44071 38.247 10.2361 38.247Z" fill="#FF8A00" stroke="#0C6DFF" stroke-width="2.89444"/>
<rect x="86.9385" y="19.4336" width="20.2611" height="20.2611" rx="10.1305" fill="#0F0F0F"/>
<rect x="311.258" y="19.4336" width="20.2611" height="20.2611" rx="10.1305" fill="#0F0F0F"/>
<rect x="535.577" y="19.4336" width="20.2611" height="20.2611" rx="10.1305" fill="#0F0F0F"/>
</svg>
