<svg width="45" height="45" viewBox="0 0 45 45" xmlns="http://www.w3.org/2000/svg">
<path d="M23.8451 1.32211C23.447 -0.440699 20.9352 -0.440704 20.537 1.3221L18.5994 9.90023C18.3413 11.0427 17.0302 11.5858 16.0399 10.9604L8.60411 6.26488C7.07605 5.29996 5.29998 7.07602 6.26491 8.60407L10.9604 16.0399C11.5858 17.0302 11.0427 18.3413 9.90027 18.5993L1.32214 20.537C-0.440666 20.9352 -0.440673 23.4469 1.32213 23.8451L9.90027 25.7828C11.0427 26.0408 11.5858 27.3519 10.9604 28.3422L6.26492 35.778C5.29999 37.3061 7.07605 39.0822 8.6041 38.1172L16.0399 33.4217C17.0302 32.7963 18.3413 33.3394 18.5994 34.4819L20.537 43.06C20.9352 44.8228 23.447 44.8228 23.8451 43.06L25.7828 34.4819C26.0409 33.3394 27.3519 32.7963 28.3423 33.4217L35.7781 38.1172C37.3061 39.0822 39.0822 37.3061 38.1173 35.778L33.4217 28.3422C32.7964 27.3519 33.3394 26.0408 34.4819 25.7828L43.06 23.8451C44.8228 23.4469 44.8228 20.9352 43.06 20.537L34.4819 18.5993C33.3394 18.3413 32.7964 17.0302 33.4217 16.0399L38.1173 8.60408C39.0822 7.07602 37.3061 5.29995 35.7781 6.26488L28.3423 10.9604C27.3519 11.5858 26.0409 11.0427 25.7828 9.90024L23.8451 1.32211Z" fill="#0F0F0F"/>
</svg>
