<svg width="53" height="422" viewBox="0 0 53 422" fill="none" xmlns="http://www.w3.org/2000/svg">
<path d="M26.2428 1.81214C20.6659 1.81214 16.146 6.33274 16.146 11.909L16.146 59.1759C7.40066 63.0513 1.29774 71.8077 1.29774 81.9927C1.29774 92.1777 7.40066 100.934 16.146 104.809L16.146 188.059C7.40066 191.934 1.29774 200.691 1.29774 210.876C1.29774 221.061 7.40066 229.817 16.146 233.692L16.146 316.942C7.40066 320.817 1.29774 329.573 1.29774 339.758C1.29774 349.943 7.40066 358.7 16.146 362.575L16.146 409.842C16.146 415.418 20.6659 419.939 26.2428 419.939C31.8197 419.939 36.3396 415.418 36.3396 409.842L36.3396 362.575C45.0849 358.7 51.1879 349.943 51.1879 339.758C51.1879 329.573 45.0849 320.817 36.3396 316.942L36.3396 233.692C45.0849 229.817 51.1879 221.061 51.1879 210.876C51.1879 200.691 45.0849 191.934 36.3396 188.059L36.3396 104.809C45.0849 100.934 51.1879 92.1777 51.1879 81.9927C51.1879 71.8077 45.0849 63.0513 36.3396 59.1759L36.3396 11.909C36.3396 6.33274 31.8197 1.81214 26.2428 1.81214Z" fill="#0F0F0F" stroke="#FF8A00" stroke-width="2.37572"/>
<path d="M51.1879 103.374C51.1879 92.6949 44.4777 83.5857 35.0467 80.0276C34.3868 75.7578 30.6968 72.4899 26.2428 72.4899C21.7887 72.4899 18.0988 75.7578 17.4389 80.0276C8.00793 83.5857 1.29774 92.6949 1.29774 103.374C1.29774 117.151 12.466 128.319 26.2428 128.319C40.0196 128.319 51.1879 117.151 51.1879 103.374Z" fill="#FF4392" stroke="#0F0F0F" stroke-width="2.37572"/>
<rect x="18.7644" y="73.6777" width="15.4422" height="15.4422" rx="7.72109" fill="#0C6DFF"/>
<rect x="2.4856" y="79.6172" width="47.5144" height="47.5144" rx="23.7572" fill="#FF4392"/>
<path d="M7.83105 101.592C7.83105 95.0585 12.5825 88.8223 18.5218 88.8223" stroke="white" stroke-width="2.37572" stroke-linecap="round"/>
<circle cx="22.6792" cy="88.8227" r="1.48483" fill="white"/>
</svg>
