<svg width="53" height="422" viewBox="0 0 53 422" fill="none" xmlns="http://www.w3.org/2000/svg">
<path d="M26.2426 1.81214C20.6657 1.81214 16.1457 6.33274 16.1457 11.909L16.1457 59.1759C7.40042 63.0513 1.29749 71.8077 1.29749 81.9927C1.29749 92.1777 7.40042 100.934 16.1457 104.809L16.1457 188.059C7.40042 191.934 1.29749 200.691 1.29749 210.876C1.29749 221.061 7.40042 229.817 16.1457 233.692L16.1457 316.942C7.40042 320.817 1.29749 329.573 1.29749 339.758C1.29749 349.943 7.40042 358.7 16.1457 362.575L16.1457 409.842C16.1457 415.418 20.6657 419.939 26.2426 419.939C31.8194 419.939 36.3394 415.418 36.3394 409.842L36.3394 362.575C45.0847 358.7 51.1876 349.943 51.1876 339.758C51.1876 329.573 45.0847 320.817 36.3394 316.942L36.3394 233.692C45.0847 229.817 51.1876 221.061 51.1876 210.876C51.1876 200.691 45.0847 191.934 36.3394 188.059L36.3394 104.809C45.0847 100.934 51.1876 92.1777 51.1876 81.9927C51.1876 71.8077 45.0847 63.0513 36.3394 59.1759L36.3394 11.909C36.3394 6.33274 31.8194 1.81214 26.2426 1.81214Z" fill="#0F0F0F" stroke="#FF8A00" stroke-width="2.37572"/>
<path d="M51.1876 364.111C51.1876 353.431 44.4774 344.322 35.0465 340.764C34.3865 336.494 30.6966 333.226 26.2426 333.226C21.7885 333.226 18.0986 336.494 17.4386 340.764C8.00769 344.322 1.29749 353.431 1.29749 364.111C1.29749 377.887 12.4658 389.056 26.2426 389.056C40.0193 389.056 51.1876 377.887 51.1876 364.111Z" fill="#FF4392" stroke="#0F0F0F" stroke-width="2.37572"/>
<rect x="18.7642" y="334.414" width="15.4422" height="15.4422" rx="7.72109" fill="#0C6DFF"/>
<rect x="2.48535" y="340.354" width="47.5144" height="47.5144" rx="23.7572" fill="#FF4392"/>
<path d="M7.83057 362.328C7.83057 355.795 12.582 349.559 18.5213 349.559" stroke="white" stroke-width="2.37572" stroke-linecap="round"/>
<circle cx="22.6792" cy="349.559" r="1.48483" fill="white"/>
</svg>
